<svg width="20" height="20" viewBox="0 0 20 20" fill="none" xmlns="http://www.w3.org/2000/svg">
<path d="M1.66669 0V1.66667C1.66669 3.04545 2.7879 4.16667 4.16669 4.16667H5.00002V7.91748C3.67637 9.23869 2.91669 11.035 2.91669 12.9167C2.91669 16.8225 6.09418 20 10 20C13.9059 20 17.0834 16.8225 17.0834 12.9167C17.0834 11.0341 16.3233 9.23706 15 7.91707V4.16667H15.8334C17.2121 4.16667 18.3334 3.04545 18.3334 1.66667V0H16.6667V1.66667C16.6667 2.12626 16.2929 2.5 15.8334 2.5H4.16669C3.70709 2.5 3.33335 2.12626 3.33335 1.66667V0H1.66669ZM15.4167 12.9167C15.4167 15.9033 12.9867 18.3333 10 18.3333C7.01337 18.3333 4.58335 15.9033 4.58335 12.9167C4.58335 11.378 5.24131 9.90784 6.38999 8.88245C7.38304 7.99093 8.66457 7.5 10 7.5C10.1671 7.5 10.3329 7.50753 10.4979 7.52299C11.6512 7.62919 12.7417 8.10242 13.6121 8.88407C14.7587 9.90784 15.4167 11.378 15.4167 12.9167ZM13.3334 4.16667V6.66748C13.2849 6.64164 13.2351 6.61926 13.1863 6.59465C13.1437 6.57328 13.1016 6.55172 13.0587 6.53117C12.8876 6.44918 12.7138 6.37166 12.5366 6.3033C12.525 6.29883 12.5128 6.29537 12.5012 6.29089C12.3338 6.22742 12.1633 6.17208 11.9912 6.12162C11.9454 6.1084 11.8996 6.09497 11.8535 6.08256C11.6695 6.03251 11.4842 5.98755 11.2962 5.95256C11.2893 5.95133 11.2818 5.95032 11.2746 5.9491C11.0934 5.91593 10.9096 5.89213 10.7255 5.87341C10.6767 5.86833 10.6283 5.86385 10.5792 5.85999C10.3872 5.84412 10.1941 5.83333 10 5.83333C9.80593 5.83333 9.61285 5.84412 9.4208 5.85999C9.37217 5.86426 9.32334 5.86873 9.27452 5.87382C9.0908 5.89254 8.90749 5.91675 8.72662 5.9495C8.7191 5.95093 8.71137 5.95174 8.70343 5.95337C8.51585 5.98836 8.33132 6.03292 8.14801 6.08256C8.10081 6.09538 8.05422 6.10881 8.00702 6.12244C7.83795 6.17208 7.67051 6.2266 7.50592 6.28866C7.49127 6.29415 7.47662 6.29883 7.46218 6.30412C7.28619 6.37166 7.11469 6.44836 6.9446 6.52954C6.89964 6.55131 6.85508 6.57369 6.81053 6.59627C6.76251 6.62048 6.71368 6.64246 6.66628 6.66789V4.16667H13.3334Z" fill="white"/>
<path d="M10 9.58374C8.16205 9.58374 6.66669 11.0787 6.66669 12.9167C6.66669 14.7546 8.16205 16.25 10 16.25C11.838 16.25 13.3334 14.7546 13.3334 12.9167C13.3334 11.0787 11.838 9.58374 10 9.58374ZM10 14.5833C9.08083 14.5833 8.33335 13.8359 8.33335 12.9167C8.33335 11.9979 9.08083 11.2504 10 11.2504C10.9192 11.2504 11.6667 11.9979 11.6667 12.9167C11.6667 13.8359 10.9192 14.5833 10 14.5833Z" fill="white"/>
</svg>
