<svg width="32" height="32" viewBox="0 0 32 32" fill="none" xmlns="http://www.w3.org/2000/svg">
<g clip-path="url(#clip0)">
<path d="M21.774 32C21.7154 32 21.6554 31.9973 21.5967 31.9933C10.1167 31.104 0.834027 21.828 0.00602659 10.4147C-0.0393067 9.79733 0.172693 9.184 0.588693 8.73333C1.00203 8.28667 1.56336 8.03867 2.17269 8.03333L6.91003 8C7.91936 8 8.79403 8.67867 9.03803 9.64933L10.0274 13.5787C10.2434 14.432 9.92469 15.3253 9.21536 15.8533L7.25003 17.3173C8.91136 20.396 11.486 22.984 14.5834 24.6893L16.102 22.68C16.63 21.9787 17.5234 21.6627 18.382 21.8747L22.3394 22.8573C23.318 23.1 23.9994 23.9693 23.9994 24.972V29.8213C23.9994 30.4293 23.7527 30.9907 23.306 31.4053C22.8927 31.788 22.342 32 21.774 32ZM6.91403 9.33333L2.18203 9.36667C1.94603 9.36933 1.72736 9.46533 1.56869 9.63867C1.40203 9.81867 1.31669 10.0667 1.33536 10.3173C2.11669 21.0773 10.8714 29.824 21.6994 30.6627C21.9674 30.6853 22.2167 30.596 22.4007 30.4253C22.5727 30.268 22.666 30.0533 22.666 29.8213V24.972C22.666 24.584 22.3994 24.2467 22.018 24.152L18.0607 23.1693C17.7274 23.0853 17.3727 23.208 17.1674 23.4827L15.306 25.9467C15.1114 26.2053 14.7594 26.288 14.4714 26.1387C10.7354 24.228 7.65669 21.132 5.80203 17.4187C5.65669 17.1307 5.74069 16.7787 5.99936 16.5867L8.41936 14.784C8.69403 14.58 8.81803 14.2347 8.73403 13.9053L7.74603 9.97467C7.65003 9.59733 7.30736 9.33333 6.91403 9.33333Z" fill="black"/>
<path d="M23.3327 9.33333H19.3327C18.9647 9.33333 18.666 9.03467 18.666 8.66667V7.33333C18.666 5.496 20.162 4 21.9993 4C22.3673 4 22.666 3.70133 22.666 3.33333V2C22.666 1.632 22.3673 1.33333 21.9993 1.33333H19.3327C18.9647 1.33333 18.666 1.03467 18.666 0.666667C18.666 0.298667 18.9647 0 19.3327 0H21.9993C23.102 0 23.9993 0.897333 23.9993 2V3.33333C23.9993 4.436 23.102 5.33333 21.9993 5.33333C20.8967 5.33333 19.9993 6.23067 19.9993 7.33333V8H23.3327C23.7007 8 23.9993 8.29867 23.9993 8.66667C23.9993 9.03467 23.7007 9.33333 23.3327 9.33333Z" fill="black"/>
<path d="M31.3327 5.33333H28.666C27.5634 5.33333 26.666 4.436 26.666 3.33333V0.666667C26.666 0.298667 26.9647 0 27.3327 0C27.7007 0 27.9994 0.298667 27.9994 0.666667V3.33333C27.9994 3.70133 28.298 4 28.666 4H31.3327C31.7007 4 31.9994 4.29867 31.9994 4.66667C31.9994 5.03467 31.7007 5.33333 31.3327 5.33333Z" fill="black"/>
<path d="M31.3327 9.33333C30.9647 9.33333 30.666 9.03467 30.666 8.66667V0.666667C30.666 0.298667 30.9647 0 31.3327 0C31.7007 0 31.9994 0.298667 31.9994 0.666667V8.66667C31.9994 9.03467 31.7007 9.33333 31.3327 9.33333Z" fill="black"/>
</g>
<defs>
<clipPath id="clip0">
<rect width="32" height="32" fill="white"/>
</clipPath>
</defs>
</svg>
