<svg width="56" height="56" viewBox="0 0 56 56" fill="none" xmlns="http://www.w3.org/2000/svg">
<g clip-path="url(#clip0)">
<path d="M37.2334 41.3588C36.7197 41.3164 36.2689 41.6986 36.2266 42.2123C36.1849 42.7173 36.5539 43.1633 37.0579 43.217C48.8166 44.3341 53.1984 47.0267 53.1984 48.4659C53.1984 50.8327 43.6125 54.1338 27.9993 54.1338C12.3861 54.1338 2.80019 50.8327 2.80019 48.4659C2.80019 47.0267 7.1867 44.3341 18.9407 43.2142C19.4532 43.1596 19.8245 42.6998 19.7699 42.1873C19.7163 41.6835 19.2703 41.3143 18.7652 41.356C14.5822 41.7545 0.933594 43.4363 0.933594 48.4659C0.933594 53.4124 14.5495 56.0004 27.9993 56.0004C41.4491 56.0004 55.065 53.4124 55.065 48.4659C55.065 43.4363 41.4164 41.7545 37.2334 41.3588Z" fill="#FF6629"/>
<path d="M39.4574 4.67504C36.442 1.62175 32.3096 -0.0664758 28.0188 0.00200508C22.1723 0.0204378 16.7861 3.17768 13.9139 8.27011C10.9582 13.4913 10.7835 19.8383 13.4472 25.2142C16.6748 31.782 20.5982 37.9845 25.1499 43.715L27.2881 46.4057C27.4652 46.6285 27.7342 46.7585 28.0188 46.7585C28.3043 46.7581 28.5738 46.6271 28.7505 46.4029L30.8327 43.7617C35.3776 37.9989 39.3181 31.7844 42.5923 25.216C45.9429 18.3867 44.6925 10.194 39.4574 4.67504ZM40.918 24.3854C37.7022 30.838 33.8324 36.9433 29.3693 42.6053L28.017 44.3207L26.617 42.554C22.1457 36.9276 18.2912 30.8374 15.1197 24.3882C12.7294 19.5664 12.8853 13.8732 15.5359 9.18941C18.0914 4.66664 22.8837 1.86954 28.0786 1.86861C31.8386 1.81144 35.4595 3.28967 38.105 5.96206C42.8017 10.9114 43.9238 18.2602 40.918 24.3854Z" fill="#FF6629"/>
<path d="M35.0612 13.7945C34.8708 13.3159 34.3287 13.082 33.8498 13.2719C33.3709 13.4624 33.1371 14.0052 33.3276 14.4841C33.3277 14.4845 33.3278 14.4848 33.3281 14.4852C33.7703 15.5986 33.868 16.8192 33.6081 17.9888C33.124 20.1199 31.472 21.7912 29.3466 22.2997C27.4244 22.7588 25.4017 22.1846 24.0072 20.784C22.5791 19.3479 21.9877 17.2795 22.4411 15.3055C23.1214 12.2358 26.1614 10.2986 29.2311 10.9789C29.5806 11.0564 29.9221 11.1666 30.251 11.3082C30.7252 11.5105 31.2736 11.2901 31.4759 10.8159C31.6782 10.3417 31.4578 9.79325 30.9836 9.59095C29.504 8.96098 27.8631 8.81526 26.2956 9.1747C23.4534 9.82591 21.2422 12.0587 20.6184 14.907C20.0255 17.5035 20.8079 20.2224 22.6903 22.1065C24.1111 23.5221 26.0362 24.3152 28.0418 24.311C28.6179 24.3124 29.1923 24.2498 29.7545 24.1243C32.5957 23.4704 34.8049 21.2366 35.4271 18.3882C35.7695 16.8551 35.642 15.2542 35.0612 13.7945Z" fill="#FF6629"/>
</g>
<defs>
<clipPath id="clip0">
<rect width="56" height="56" fill="white"/>
</clipPath>
</defs>
</svg>
