<svg width="16" height="16" viewBox="0 0 16 16" fill="none" xmlns="http://www.w3.org/2000/svg">
<g clip-path="url(#clip0)">
<path d="M7.2846 1.87622C5.59438 1.87622 4.21926 3.25122 4.21926 4.94135V11.0587C4.21926 12.7488 5.59438 14.1238 7.2846 14.1238H8.71541C10.4057 14.1238 11.7808 12.7488 11.7808 11.0587C11.7808 10.1176 11.7808 5.58397 11.7808 4.94135C11.7808 3.25125 10.4057 1.87622 8.71541 1.87622H7.2846ZM8.71538 13.1863H7.28457C6.11132 13.1863 5.15679 12.2319 5.15679 11.0587V7.25788C5.42473 7.40981 5.73395 7.49703 6.06335 7.49703H9.93659C10.266 7.49703 10.5752 7.40981 10.8432 7.25788V11.0587C10.8432 12.2319 9.88866 13.1863 8.71538 13.1863ZM10.8432 4.94135V5.65303C10.8432 6.15288 10.4365 6.55953 9.93662 6.55953H6.06338C5.56351 6.55953 5.15682 6.15288 5.15682 5.65303V4.94135C5.15682 3.76816 6.11135 2.81372 7.2846 2.81372H8.71541C9.88866 2.81372 10.8432 3.76819 10.8432 4.94135Z" fill="white"/>
<path d="M7.99997 3.75122C7.74107 3.75122 7.5312 3.9611 7.5312 4.21997V5.15329C7.5312 5.41216 7.74107 5.62204 7.99997 5.62204C8.25887 5.62204 8.46875 5.41216 8.46875 5.15329V4.21997C8.46875 3.9611 8.25887 3.75122 7.99997 3.75122Z" fill="white"/>
<path d="M0.138878 8.48636L2.48357 10.8002C2.66794 10.9821 2.96472 10.98 3.1465 10.7958C3.32838 10.6115 3.32641 10.3147 3.14213 10.1329L1.1355 8.15271L3.14213 6.17249C3.32638 5.99065 3.32835 5.69387 3.1465 5.50959C2.96463 5.32534 2.66782 5.3234 2.48357 5.50521L0.138878 7.81905C-0.043934 7.99955 -0.0486215 8.30174 0.138878 8.48636Z" fill="white"/>
<path d="M15.8611 7.81908L13.5164 5.50524C13.3321 5.32339 13.0353 5.32533 12.8534 5.50961C12.6716 5.69386 12.6735 5.99067 12.8578 6.17252L14.8644 8.15274L12.8578 10.1329C12.6736 10.3148 12.6716 10.6115 12.8534 10.7958C13.0354 10.9801 13.3321 10.982 13.5164 10.8002L15.8611 8.48639C16.0455 8.30486 16.0472 8.0028 15.8611 7.81908Z" fill="white"/>
</g>
<defs>
<clipPath id="clip0">
<rect width="16" height="16" fill="white"/>
</clipPath>
</defs>
</svg>
