<svg width="32" height="32" viewBox="0 0 32 32" fill="none" xmlns="http://www.w3.org/2000/svg">
<g clip-path="url(#clip0)">
<path d="M26.4006 32H5.60058C4.94725 32 4.32592 31.7186 3.89658 31.2266C3.46592 30.7346 3.26725 30.0826 3.35392 29.4346L6.12725 8.63463C6.27658 7.51196 7.24325 6.66663 8.37392 6.66663H23.6273C24.7593 6.66663 25.7246 7.51196 25.8753 8.63463L28.6486 29.4346C28.7339 30.0826 28.5366 30.736 28.1059 31.2266C27.6753 31.7186 27.0539 32 26.4006 32ZM8.37392 7.99996C7.90725 7.99996 7.51125 8.34796 7.44992 8.80929L4.67658 29.6093C4.64058 29.88 4.71925 30.1413 4.89925 30.348C5.07925 30.5533 5.32725 30.6666 5.60058 30.6666H26.4006C26.6739 30.6666 26.9233 30.5533 27.1019 30.348C27.2819 30.1426 27.3606 29.88 27.3246 29.6093L24.5513 8.80929C24.4899 8.34796 24.0926 7.99996 23.6273 7.99996H8.37392Z" fill="#2D2D2D"/>
<path d="M19.3333 10.6667C18.9653 10.6667 18.6667 10.368 18.6667 10V4C18.6667 2.52933 17.4707 1.33333 16 1.33333C14.5293 1.33333 13.3333 2.52933 13.3333 4V10C13.3333 10.368 13.0347 10.6667 12.6667 10.6667C12.2987 10.6667 12 10.368 12 10V4C12 1.79467 13.7947 0 16 0C18.2053 0 20 1.79467 20 4V10C20 10.368 19.7013 10.6667 19.3333 10.6667Z" fill="#2D2D2D"/>
</g>
<defs>
<clipPath id="clip0">
<rect width="32" height="32" fill="white"/>
</clipPath>
</defs>
</svg>
