<svg width="32" height="32" viewBox="0 0 32 32" fill="none" xmlns="http://www.w3.org/2000/svg">
<g clip-path="url(#clip0)">
<path d="M25.3327 31.9999C25.242 31.9999 25.15 31.9812 25.066 31.9439C24.8047 31.8306 18.666 29.0852 18.666 23.4759V18.7612C18.666 18.4786 18.846 18.2252 19.1127 18.1319L25.1127 16.0372C25.2553 15.9879 25.41 15.9879 25.5527 16.0372L31.5527 18.1319C31.8193 18.2252 31.9993 18.4786 31.9993 18.7612V23.4759C31.9993 29.0866 25.8607 31.8306 25.5993 31.9439C25.5153 31.9812 25.4233 31.9999 25.3327 31.9999ZM19.9993 19.2346V23.4759C19.9993 27.6159 24.2167 30.0279 25.3313 30.5932C26.446 30.0266 30.666 27.6039 30.666 23.4759V19.2346L25.3327 17.3732L19.9993 19.2346Z" fill="black"/>
<path d="M24.7882 26.3587C24.7762 26.3587 24.7629 26.3587 24.7522 26.3573C24.5575 26.3467 24.3802 26.2533 24.2615 26.1L22.0789 23.28C21.8535 22.988 21.9069 22.5693 22.1989 22.344C22.4882 22.1187 22.9082 22.1707 23.1335 22.4627L24.8442 24.6747L28.1269 21.28C28.3815 21.016 28.8042 21.0093 29.0695 21.264C29.3335 21.52 29.3415 21.9413 29.0855 22.2067L25.2682 26.1547C25.1402 26.2853 24.9682 26.3587 24.7882 26.3587Z" fill="black"/>
<path d="M16.6667 26.6667H1.768C0.793333 26.6667 0 25.8733 0 24.8987V8.66667C0 8.29867 0.298667 8 0.666667 8H26C26.368 8 26.6667 8.29867 26.6667 8.66667V14C26.6667 14.368 26.368 14.6667 26 14.6667C25.632 14.6667 25.3333 14.368 25.3333 14V9.33333H1.33333V24.8987C1.33333 25.1387 1.528 25.3333 1.768 25.3333H16.6667C17.0347 25.3333 17.3333 25.632 17.3333 26C17.3333 26.368 17.0347 26.6667 16.6667 26.6667Z" fill="black"/>
<path d="M26 9.33333C25.7653 9.33333 25.5373 9.20933 25.416 8.988L21.3893 1.67867C21.2733 1.46533 21.0493 1.33333 20.8053 1.33333H5.86133C5.61733 1.33333 5.39332 1.46533 5.27732 1.67867L1.25066 8.988C1.07332 9.31067 0.666658 9.428 0.345325 9.25067C0.0226582 9.07333 -0.0946752 8.66667 0.0826582 8.34533L4.10932 1.036C4.45999 0.396 5.13199 0 5.86133 0H20.8067C21.536 0 22.208 0.396 22.5587 1.03467L26.584 8.344C26.7627 8.66667 26.6453 9.072 26.3227 9.24933C26.22 9.30667 26.1093 9.33333 26 9.33333Z" fill="black"/>
<path d="M13.3327 9.33333C12.9647 9.33333 12.666 9.03467 12.666 8.66667V0.666667C12.666 0.298667 12.9647 0 13.3327 0C13.7007 0 13.9994 0.298667 13.9994 0.666667V8.66667C13.9994 9.03467 13.7007 9.33333 13.3327 9.33333Z" fill="black"/>
</g>
<defs>
<clipPath id="clip0">
<rect width="32" height="32" fill="white"/>
</clipPath>
</defs>
</svg>
