<svg width="32" height="32" viewBox="0 0 32 32" fill="none" xmlns="http://www.w3.org/2000/svg">
<g clip-path="url(#clip0)">
<path d="M20.6667 28H11.2667C10.8987 28 10.6 27.7013 10.6 27.3333C10.6 26.9653 10.8987 26.6666 11.2667 26.6666H20V8.66663C20 8.29863 19.7 7.99996 19.3333 7.99996H2C1.63333 7.99996 1.33333 8.29863 1.33333 8.66663V26C1.33333 26.368 1.63333 26.6666 2 26.6666H4.73333C5.10133 26.6666 5.4 26.9653 5.4 27.3333C5.4 27.7013 5.10133 28 4.73333 28H2C0.897333 28 0 27.1026 0 26V8.66663C0 7.56396 0.897333 6.66663 2 6.66663H19.3333C20.436 6.66663 21.3333 7.56396 21.3333 8.66663V27.3333C21.3333 27.7013 21.0347 28 20.6667 28Z" fill="black"/>
<path d="M30 28H28.2667C27.8987 28 27.6 27.7013 27.6 27.3333C27.6 26.9653 27.8987 26.6666 28.2667 26.6666H30C30.3667 26.6666 30.6667 26.368 30.6667 26V23.3333C30.6667 19.2893 27.376 16 23.3333 16H21.3333V26.6666H21.7333C22.1013 26.6666 22.4 26.9653 22.4 27.3333C22.4 27.7013 22.1013 28 21.7333 28H20.6667C20.2987 28 20 27.7013 20 27.3333V15.3333C20 14.9653 20.2987 14.6666 20.6667 14.6666H23.3333C28.112 14.6666 32 18.5546 32 23.3333V26C32 27.1026 31.1027 28 30 28Z" fill="black"/>
<path d="M25 32C22.7947 32 21 30.2053 21 28C21 25.7947 22.7947 24 25 24C27.2053 24 29 25.7947 29 28C29 30.2053 27.2053 32 25 32ZM25 25.3333C23.5293 25.3333 22.3333 26.5293 22.3333 28C22.3333 29.4707 23.5293 30.6667 25 30.6667C26.4707 30.6667 27.6667 29.4707 27.6667 28C27.6667 26.5293 26.4707 25.3333 25 25.3333Z" fill="black"/>
<path d="M8 32C5.79467 32 4 30.2053 4 28C4 25.7947 5.79467 24 8 24C10.2053 24 12 25.7947 12 28C12 30.2053 10.2053 32 8 32ZM8 25.3333C6.52933 25.3333 5.33333 26.5293 5.33333 28C5.33333 29.4707 6.52933 30.6667 8 30.6667C9.47067 30.6667 10.6667 29.4707 10.6667 28C10.6667 26.5293 9.47067 25.3333 8 25.3333Z" fill="black"/>
<path d="M4.6672 17.3334C4.52853 17.3334 4.3872 17.2894 4.2672 17.2C3.97253 16.9787 3.91253 16.5614 4.13253 16.2667L8.13253 10.9334C8.3552 10.6374 8.77253 10.58 9.06586 10.8C9.36186 11.0214 9.42053 11.4387 9.20053 11.7334L5.20053 17.0667C5.06987 17.2414 4.86853 17.3334 4.6672 17.3334Z" fill="black"/>
<path d="M12.6672 21.3333C12.5285 21.3333 12.3872 21.2893 12.2672 21.2C11.9725 20.9787 11.9125 20.5613 12.1325 20.2667L16.1325 14.9333C16.3552 14.6387 16.7739 14.58 17.0659 14.8C17.3605 15.0213 17.4205 15.4387 17.2005 15.7333L13.2005 21.0667C13.0699 21.2413 12.8685 21.3333 12.6672 21.3333Z" fill="black"/>
<path d="M7.33284 21.3333C7.19818 21.3333 7.06351 21.2933 6.94484 21.2093C6.64484 20.996 6.57684 20.5787 6.79018 20.28L13.4568 10.9467C13.6715 10.6453 14.0875 10.5787 14.3875 10.792C14.6875 11.0053 14.7555 11.4227 14.5422 11.7213L7.87551 21.0547C7.74618 21.236 7.53951 21.3333 7.33284 21.3333Z" fill="black"/>
</g>
<defs>
<clipPath id="clip0">
<rect width="32" height="32" fill="white"/>
</clipPath>
</defs>
</svg>
