<svg width="56" height="56" viewBox="0 0 56 56" fill="none" xmlns="http://www.w3.org/2000/svg">
<g clip-path="url(#clip0)">
<path d="M0.93353 48.0873H7.46781V51.8214C7.46781 52.3367 7.88566 52.7549 8.40134 52.7549H27.0702C27.318 52.7545 27.5556 52.6562 27.7303 52.4811L32.1241 48.0873H41.0723C41.588 48.0873 42.0059 47.6694 42.0059 47.1542V38.206L45.2375 34.9751C45.3196 34.8867 45.4486 34.8611 45.5584 34.9106C45.6708 34.9529 45.7438 35.0623 45.7396 35.1823V51.8214C45.7396 52.3371 46.1574 52.7549 46.6731 52.7549H50.4072C50.9225 52.7549 51.3403 52.3371 51.3403 51.8214V31.2141C51.3365 29.7136 51.9325 28.2738 52.9963 27.2151C53.8645 26.3708 54.575 25.3784 55.0949 24.2842C56.5728 21.0679 56.2229 17.3073 54.1772 14.4187L51.166 10.203C50.8661 9.78392 50.2829 9.68693 49.8638 9.98686C49.7894 10.0403 49.7236 10.1039 49.6676 10.1761L42.0059 20.1049V4.21478C42.0059 3.6991 41.5876 3.28125 41.0723 3.28125H0.93353C0.417845 3.28125 0 3.6991 0 4.21478V47.1542C0 47.6694 0.417845 48.0873 0.93353 48.0873ZM33.9912 46.2206L36.4051 43.8067L38.819 46.2206H33.9912ZM40.1388 44.9005L37.7249 42.4865L40.1388 40.073V44.9005ZM37.3382 5.14831H40.1388V22.5235L37.3382 26.1512V5.14831ZM33.6045 5.14831H35.4716V28.5707L33.6045 30.9894V5.14831ZM50.3777 12.3145L52.6584 15.5099C54.3135 17.8537 54.5938 20.9025 53.3941 23.5096C52.966 24.4 52.3832 25.2079 51.6727 25.8945C50.2572 27.3027 49.4643 29.2184 49.4698 31.2149V50.8879H47.6066V35.1823C47.6066 33.9886 46.6389 33.0213 45.4456 33.0213C44.8722 33.0213 44.3228 33.2491 43.9174 33.6541L26.684 50.8879H9.33445V47.7861L22.3265 42.5895C24.2739 43.5845 26.6537 43.0513 27.9897 41.3197L50.3777 12.3145ZM1.86706 5.14831H31.7375V33.408L26.5101 40.1811C25.6565 41.2915 24.0889 41.5517 22.9221 40.7767C22.667 40.6049 22.3436 40.5699 22.0578 40.6831L8.22105 46.2206H1.86706V5.14831Z" fill="#FF6629"/>
</g>
<defs>
<clipPath id="clip0">
<rect width="56" height="56" fill="white"/>
</clipPath>
</defs>
</svg>
