<svg width="56" height="56" viewBox="0 0 56 56" fill="none" xmlns="http://www.w3.org/2000/svg">
<g clip-path="url(#clip0)">
<path d="M19.5995 53.6289C21.6614 53.6289 23.3328 51.9575 23.3328 49.8956C23.3328 47.8337 21.6614 46.1624 19.5995 46.1624C17.5376 46.1624 15.8662 47.8337 15.8662 49.8956C15.8662 51.9575 17.5376 53.6289 19.5995 53.6289ZM19.5995 48.029C20.6304 48.029 21.4661 48.8647 21.4661 49.8956C21.4661 50.9266 20.6304 51.7623 19.5995 51.7623C18.5685 51.7623 17.7328 50.9266 17.7328 49.8956C17.7328 48.8647 18.5685 48.029 19.5995 48.029Z" fill="#FF6629"/>
<path d="M48.532 49.8956C48.532 47.8337 46.8606 46.1624 44.7987 46.1624C42.7368 46.1624 41.0654 47.8337 41.0654 49.8956C41.0654 51.9575 42.7368 53.6289 44.7987 53.6289C46.8606 53.6289 48.532 51.9575 48.532 49.8956ZM42.9321 49.8956C42.9321 48.8647 43.7678 48.029 44.7987 48.029C45.8297 48.029 46.6653 48.8647 46.6653 49.8956C46.6653 50.9266 45.8297 51.7623 44.7987 51.7623C43.7678 51.7623 42.9321 50.9266 42.9321 49.8956Z" fill="#FF6629"/>
<path d="M15.8662 22.8301H27.9991V24.6967H15.8662V22.8301Z" fill="#FF6629"/>
<path d="M20.5322 27.4963H40.1317V29.363H20.5322V27.4963Z" fill="#FF6629"/>
<path d="M26.1328 32.1626H49.4656V34.0292H26.1328V32.1626Z" fill="#FF6629"/>
<path d="M42.9322 2.29688H26.1324C25.6172 2.29688 25.1993 2.71472 25.1993 3.23041V7.89678H17.7328C17.2176 7.89678 16.7997 8.31462 16.7997 8.83031V15.9529L11.6728 15.4082L11.1998 9.68608C11.1592 9.20116 10.7529 8.8286 10.2663 8.83031H7.29478C6.90044 7.7152 5.84899 6.96837 4.66637 6.96367H2.79974C1.25354 6.96325 0 8.21721 0 9.76341C0 11.3096 1.25354 12.5631 2.79974 12.5631H4.66637C5.84899 12.5584 6.90044 11.8112 7.29478 10.6965H9.40751L12.1329 43.4397C12.1735 43.9246 12.5794 44.2972 13.0664 44.2955H54.132V42.4293H13.9248L13.6142 38.696H54.132C54.6276 38.6965 55.0373 38.3098 55.0651 37.8146L55.9986 21.0153C56.0268 20.5185 55.6598 20.0869 55.165 20.0344L52.2717 19.7263V11.63C52.2717 11.1144 51.8539 10.6965 51.3386 10.6965H43.8653V3.23041C43.8653 2.71472 43.4474 2.29688 42.9322 2.29688ZM4.66637 10.6965H2.79974C2.28448 10.6965 1.86663 10.2787 1.86663 9.76341C1.86663 9.24773 2.28448 8.82988 2.79974 8.82988H4.66637C5.18206 8.82988 5.5999 9.24773 5.5999 9.76341C5.5999 10.2787 5.18206 10.6965 4.66637 10.6965ZM27.066 4.16351H41.9986V10.6965H40.132C39.6167 10.6965 39.1989 11.1144 39.1989 11.63V18.3369L29.8657 17.3436V8.82988C29.8657 8.31462 29.4479 7.89678 28.9326 7.89678H27.066V4.16351ZM18.6663 9.76341H27.9991V17.1449L18.6659 16.152V9.76341H18.6663ZM54.0841 21.7972L53.2488 36.8294H13.4582L11.8304 17.3026L54.0841 21.7972ZM50.3987 12.5631V19.5277L41.0655 18.5365V12.5631H50.3987Z" fill="#FF6629"/>
</g>
<defs>
<clipPath id="clip0">
<rect width="56" height="56" fill="white"/>
</clipPath>
</defs>
</svg>
