<svg width="56" height="56" viewBox="0 0 56 56" fill="none" xmlns="http://www.w3.org/2000/svg">
<g clip-path="url(#clip0)">
<path d="M55.7791 44.9471C55.956 44.7378 56.0325 44.4613 55.9872 44.1909L51.3208 16.1909C51.2456 15.7406 50.8564 15.4107 50.4005 15.4103H47.6003V14.4772C47.6046 10.8734 44.6865 7.94888 41.0827 7.9446C39.0208 7.94204 37.079 8.91445 35.846 10.567C34.21 6.23434 29.3715 4.04769 25.0383 5.68319C22.7842 6.53426 21.0051 8.31332 20.1545 10.567C17.999 7.67886 13.9107 7.08499 11.0225 9.24002C9.36992 10.473 8.39751 12.4149 8.39965 14.4772V15.4103H5.5999C5.1436 15.4107 4.75438 15.7406 4.67961 16.1909L0.012803 44.1909C-0.0717919 44.6993 0.271714 45.1804 0.780565 45.265C0.83098 45.2731 0.881822 45.2774 0.933091 45.2774H11.633L11.1998 49.8566C11.1515 50.3697 11.5279 50.8248 12.0415 50.8735C12.0718 50.8764 12.1026 50.8777 12.1334 50.8777H43.8671C44.3823 50.8799 44.8023 50.4637 44.8045 49.9485C44.8045 49.9177 44.8032 49.8869 44.8002 49.8566L44.3674 45.2774H55.0673C55.3416 45.2774 55.6018 45.1565 55.7791 44.9471ZM36.4001 14.4772C36.4001 11.8996 38.4893 9.81039 41.0669 9.81039C43.6441 9.81039 45.7337 11.8996 45.7337 14.4772V15.4103H36.4001V14.4772ZM21.4665 14.4772V13.5437C21.4665 9.93557 24.3919 7.01022 28 7.01022C31.6085 7.01022 34.5335 9.93557 34.5335 13.5437V15.4103H30.8002C30.2845 15.4103 29.8666 15.8282 29.8666 16.3438V19.1436H26.1334V16.3438C26.1334 15.8282 25.7155 15.4103 25.1998 15.4103H21.4665V14.4772ZM34.5335 17.2769V19.1436H31.7333V17.2769H34.5335ZM21.4665 17.2769H24.2667V19.1436H21.4665V17.2769ZM10.2667 14.4772C10.2667 11.8996 12.3559 9.81039 14.9331 9.81039C17.5107 9.81039 19.5999 11.8996 19.5999 14.4772V15.4103H10.2667V14.4772ZM11.8074 43.4107H2.03539L6.39031 17.2769H8.39965V19.1436H10.2667V17.2769H19.5999V19.1436H14.9331C14.4503 19.1414 14.0453 19.5085 14 19.9895L11.8074 43.4107ZM13.16 49.0107L15.7825 21.0107H19.5999V24.7439H21.4665V21.0107H34.5335V24.7439H36.4001V21.0107H40.2175L42.84 49.0107H13.16ZM44.1943 43.4107L42.0004 19.9895C41.9547 19.5085 41.5501 19.1414 41.0669 19.1436H36.4001V17.2769H45.7337V19.1436H47.6003V17.2769H49.6097L53.9646 43.4107H44.1943Z" fill="#FF6629"/>
</g>
<defs>
<clipPath id="clip0">
<rect width="56" height="56" fill="white"/>
</clipPath>
</defs>
</svg>
