<svg width="26" height="26" viewBox="0 0 26 26" fill="none" xmlns="http://www.w3.org/2000/svg">
<path fill-rule="evenodd" clip-rule="evenodd" d="M3.04687 23.9687C2.47151 23.9687 2.03125 23.4586 2.03125 22.8516V13.3555C2.03125 11.4984 3.37343 10.1562 5.23048 10.1562H12.6445C14.5016 10.1562 15.8437 11.4984 15.8437 13.3555V16.707C15.8437 18.2427 14.9599 19.2762 13.857 19.6968C12.5473 20.1963 7.26952 19.6796 6.64872 20.0042C6.1469 20.2666 4.40652 22.9185 3.87183 23.5242C3.68349 23.7375 3.42617 23.9687 3.04687 23.9687ZM0 12.8984V23.5117C0 23.9191 0.64314 24.9449 0.956446 25.1959C1.81597 25.8845 2.19831 26 3.30079 26C4.4379 26 5.24301 25.1424 5.8259 24.361C5.98113 24.153 6.10083 23.9763 6.25342 23.7729L7.61719 21.9375C8.8698 21.9375 10.1224 21.9375 11.375 21.9375C11.9787 21.9375 12.6604 21.9675 13.2543 21.9379C14.6112 21.8704 16.091 20.9728 16.8673 19.9142C17.4001 19.1877 17.875 18.1318 17.875 17.1641V12.8984C17.875 10.5126 15.4957 8.125 13.1016 8.125H4.77344C2.38644 8.125 0 10.5053 0 12.8984Z" fill="white"/>
<path fill-rule="evenodd" clip-rule="evenodd" d="M7.71875 4.77344V5.23048C7.71875 5.60271 8.20979 6.09375 8.58204 6.09375C8.93877 6.09375 9.22764 6.10412 9.53394 5.72533C9.95886 5.19982 9.52363 4.54029 10.2666 3.41111C10.7741 2.63968 11.6813 2.03125 12.9492 2.03125H20.7695C22.6266 2.03125 23.9688 3.37343 23.9688 5.23048V15.0312C23.9688 15.5247 23.7877 15.9617 23.3918 16.13C22.0479 16.7015 21.967 14.8789 21.0742 14.8789C20.7478 14.8789 20.5613 14.8846 20.23 15.1519C20.0883 15.2661 19.9406 15.5203 19.89 15.7303C19.7226 16.4261 20.8447 17.5081 21.3577 17.8455C22.4727 18.5789 23.9993 18.3614 25.0205 17.5049C25.3546 17.2247 26 16.2259 26 15.793V4.77344C26 3.0009 24.7159 1.29117 23.1228 0.490499C22.6606 0.258178 21.894 0 21.2266 0H12.4922C10.7216 0 9.01027 1.28346 8.20925 2.87721C7.98284 3.32766 7.71875 4.12414 7.71875 4.77344Z" fill="white"/>
<path fill-rule="evenodd" clip-rule="evenodd" d="M4.0625 14.8789V15.1836C4.0625 15.5558 4.55354 16.0469 4.92579 16.0469H5.23048C5.60271 16.0469 6.09375 15.5558 6.09375 15.1836V14.8789C6.09375 14.5067 5.60271 14.0156 5.23048 14.0156H4.92579C4.55354 14.0156 4.0625 14.5067 4.0625 14.8789Z" fill="white"/>
<path fill-rule="evenodd" clip-rule="evenodd" d="M7.92188 14.8789V15.1836C7.92188 15.5558 8.41291 16.0469 8.78517 16.0469H9.08985C9.46209 16.0469 9.95312 15.5558 9.95312 15.1836V14.8789C9.95312 14.5067 9.46209 14.0156 9.08985 14.0156H8.78517C8.41291 14.0156 7.92188 14.5067 7.92188 14.8789Z" fill="white"/>
<path fill-rule="evenodd" clip-rule="evenodd" d="M11.7812 14.8789V15.1836C11.7812 15.5558 12.2723 16.0469 12.6445 16.0469H12.9492C13.3215 16.0469 13.8125 15.5558 13.8125 15.1836V14.8789C13.8125 14.5067 13.3215 14.0156 12.9492 14.0156H12.6445C12.2723 14.0156 11.7812 14.5067 11.7812 14.8789Z" fill="white"/>
</svg>
