<svg width="18" height="18" viewBox="0 0 18 18" fill="none" xmlns="http://www.w3.org/2000/svg">
<g clip-path="url(#clip0)">
<path d="M11.6327 18C4.42068 17.9458 -4.02854 7.43718 2.1455 1.25808C2.36485 1.03511 2.59704 0.820601 2.83559 0.62047C3.34006 0.197257 3.97922 -0.0210101 4.63494 0.00584272C5.29329 0.032801 5.91231 0.304563 6.37794 0.771008C6.38097 0.77403 6.38399 0.777123 6.38698 0.780216L7.57623 2.01604C8.86327 3.27538 8.40716 5.54642 6.72921 6.20357C6.20976 6.41544 5.87839 6.60359 5.78985 6.66724C5.13498 7.33452 4.7181 8.41875 7.16757 10.8725C7.96244 11.6687 9.13971 12.7273 10.182 12.7273C10.6049 12.7273 10.993 12.5483 11.3677 12.1804C11.4165 12.109 11.5849 11.8221 11.802 11.281C12.4525 9.59153 14.7279 9.12185 15.9919 10.4178L17.2134 11.5999C17.2163 11.6027 17.2192 11.6056 17.2221 11.6084C17.6858 12.073 17.9572 12.6903 17.9862 13.3466C18.0151 14.0025 17.7995 14.6413 17.379 15.1454C17.1924 15.369 16.9932 15.5872 16.7867 15.7941C15.3321 17.2512 13.5712 17.9999 11.6327 18ZM4.5277 1.40774C4.24982 1.40774 3.97029 1.50366 3.73916 1.69754C3.53478 1.86902 3.33574 2.05288 3.14763 2.24408C-0.143776 5.58712 1.66524 10.1536 4.82751 13.2799C7.96131 16.3979 12.5048 18.1028 15.7918 14.8008C15.9688 14.6234 16.1396 14.4363 16.2995 14.2447C16.7052 13.7584 16.6754 13.0546 16.2309 12.6055L15.0102 11.4241C15.0073 11.4213 15.0044 11.4184 15.0015 11.4156C14.7218 11.1353 14.339 11.0199 13.9515 11.0991C13.5628 11.1784 13.255 11.4356 13.1068 11.8047C13.0086 12.0495 12.666 12.8702 12.3834 13.1532C11.7343 13.8034 10.9936 14.1331 10.1821 14.1331C8.63457 14.1331 7.22648 12.9214 6.17261 11.8657C4.57357 10.3316 2.72547 7.71559 4.81226 5.65639C5.10806 5.36006 5.94791 5.00388 6.19827 4.90177C6.56194 4.75345 6.81539 4.44651 6.8936 4.0597C6.9724 3.66992 6.85683 3.28533 6.57649 3.0045C6.57347 3.00148 6.57045 2.99839 6.56746 2.99529L5.37894 1.7602C5.14317 1.52619 4.83647 1.40774 4.5277 1.40774ZM17.2887 8.40399C16.929 8.40399 16.6223 8.12931 16.5894 7.76409C16.2846 4.38296 13.6095 1.7078 10.2284 1.4031C9.84171 1.36827 9.55652 1.02657 9.59136 0.639907C9.62615 0.253212 9.9681 -0.0320113 10.3546 0.00289031C14.3079 0.298482 17.6939 3.68461 17.9896 7.63788C18.0244 8.02454 17.7392 8.36624 17.3526 8.40107C17.3311 8.40304 17.3098 8.40399 17.2887 8.40399ZM11.8119 8.40294C12.1802 8.28006 12.3791 7.88194 12.2563 7.51363C11.9805 6.68717 11.3336 6.0233 10.5257 5.73772C10.1598 5.60831 9.75806 5.80018 9.62872 6.16624C9.4993 6.53227 9.69117 6.93391 10.0572 7.06328C10.4595 7.20549 10.783 7.54017 10.9226 7.95857C11.0209 8.25303 11.2951 8.43925 11.5894 8.43925C11.6631 8.43928 11.7381 8.42758 11.8119 8.40294ZM14.5736 8.39686C14.9579 8.34189 15.2249 7.98577 15.1699 7.60143C14.8178 5.13979 12.8526 3.17465 10.391 2.82251C9.46331 2.72736 9.27376 4.04519 10.1919 4.21425C12.0392 4.47849 13.5139 5.95322 13.7781 7.80047C13.8283 8.15107 14.129 8.40396 14.4731 8.40396C14.5063 8.40403 14.5398 8.40167 14.5736 8.39686Z" fill="#A6A6A6"/>
</g>
<defs>
<clipPath id="clip0">
<rect width="18" height="18" fill="white"/>
</clipPath>
</defs>
</svg>
