<svg width="32" height="32" viewBox="0 0 32 32" fill="none" xmlns="http://www.w3.org/2000/svg">
<path d="M31 16H28V15C28 12.244 25.758 10 23 10C20.242 10 18 12.244 18 15V16H15C14.448 16 14 16.448 14 17V28C14 30.206 15.794 32 18 32H28C30.206 32 32 30.206 32 28V17C32 16.448 31.552 16 31 16ZM26 16H20V15C20 13.346 21.346 12 23 12C24.654 12 26 13.346 26 15V16Z" fill="white"/>
<path d="M19 8H16V6C16 2.692 13.308 0 10 0C6.692 0 4 2.692 4 6V8H1C0.448 8 0 8.448 0 9V28C0 30.206 1.794 32 4 32H13.56C12.602 30.936 12 29.542 12 28V17C12 15.346 13.346 14 15 14H16.072C16.406 11.67 17.906 9.732 19.946 8.732C19.828 8.314 19.458 8 19 8ZM14 8H6V6C6 3.794 7.794 2 10 2C12.206 2 14 3.794 14 6V8Z" fill="white"/>
</svg>
