<svg width="32" height="32" viewBox="0 0 32 32" fill="none" xmlns="http://www.w3.org/2000/svg">
<path d="M24.3051 19.5655C23.5904 19.3921 22.8704 19.8388 22.7011 20.5547C22.5304 21.2707 22.9744 21.9894 23.6904 22.1587C27.8316 23.1414 29.333 24.5947 29.333 25.3334C29.333 26.9266 24.0158 29.3333 15.9999 29.3333C7.9854 29.3333 2.66688 26.9266 2.66688 25.3334C2.66688 24.5947 4.16954 23.1414 8.30808 22.1587C9.02538 21.9894 9.46806 21.2707 9.29737 20.5547C9.12807 19.8388 8.40808 19.3921 7.69341 19.5655C2.73219 20.7414 0.000244141 22.7894 0.000244141 25.3334C0.000244141 29.7093 8.05077 31.9999 15.9999 31.9999C23.9505 31.9999 31.9996 29.7093 31.9996 25.3334C31.9996 22.7894 29.2677 20.7414 24.3051 19.5655Z" fill="white"/>
<path d="M16.0005 10.6672C16.7365 10.6672 17.3338 10.0699 17.3338 9.33396C17.3338 8.59797 16.7365 8.00067 16.0005 8.00067C15.2645 8.00067 14.6672 8.59797 14.6672 9.33396C14.6672 10.0699 15.2645 10.6672 16.0005 10.6672Z" fill="white"/>
<path d="M14.2646 24.8444L14.8073 25.9297C15.034 26.3816 15.4953 26.667 16.0006 26.667C16.5059 26.667 16.9673 26.3816 17.1939 25.9297L18.3432 23.631C19.7418 20.8324 21.4671 18.1218 23.1351 15.5005L23.8951 14.3045C24.8364 12.8165 25.3337 11.0979 25.3337 9.33391C25.3337 6.67797 24.1964 4.13933 22.2138 2.36874C20.2325 0.59946 17.5672 -0.248461 14.91 0.0635328C10.7607 0.535524 7.33413 3.87677 6.75946 8.00738C6.41946 10.4553 7.03145 12.886 8.48074 14.8539C10.7421 17.9178 12.5073 21.3271 14.2646 24.8444ZM16.0006 5.33405C18.2059 5.33405 20.0005 7.12871 20.0005 9.33398C20.0005 11.5392 18.2059 13.3339 16.0006 13.3339C13.7953 13.3339 12.0007 11.5392 12.0007 9.33398C12.0007 7.12871 13.7953 5.33405 16.0006 5.33405Z" fill="white"/>
</svg>
