<svg width="32" height="30" viewBox="0 0 32 30" fill="none" xmlns="http://www.w3.org/2000/svg">
<path d="M15.2903 19.0193C15.4932 19.1977 15.7465 19.2872 16 19.2872C16.2536 19.2872 16.507 19.1977 16.7097 19.0193C16.9667 18.7929 23.0011 13.4143 23.0011 7.83619C23.0011 3.97441 19.8605 0.832581 16.0001 0.832581C12.1397 0.832581 8.99902 3.97441 8.99902 7.83619C8.99881 13.4143 15.0334 18.7929 15.2903 19.0193ZM16 6.00626C17.0023 6.00626 17.815 6.82533 17.815 7.83619C17.815 8.84694 17.0023 9.66612 16 9.66612C14.9975 9.66612 14.1849 8.84683 14.1849 7.83619C14.1849 6.82533 14.9975 6.00626 16 6.00626Z" fill="white"/>
<path d="M29.4527 19.016L28.6417 16.174C28.5101 15.7127 28.0887 15.3948 27.6092 15.3948H21.8213C21.6121 15.7058 21.3913 16.0181 21.1578 16.332C19.5355 18.5117 17.8863 19.9861 17.7034 20.1473C17.2326 20.5619 16.6278 20.7902 16.0002 20.7902C15.373 20.7902 14.7682 20.5621 14.2967 20.1471C14.1141 19.9861 12.4647 18.5115 10.8425 16.332C10.609 16.0181 10.3882 15.7057 10.179 15.3948H4.39094C3.91147 15.3948 3.49009 15.7127 3.35842 16.174L2.39185 19.561L23.9977 23.5185L29.4527 19.016Z" fill="white"/>
<path d="M31.9587 27.7991L29.8868 20.5376L19.6067 29.1677H30.9263C31.2632 29.1677 31.5805 29.0096 31.7834 28.7407C31.9863 28.4717 32.051 28.123 31.9587 27.7991Z" fill="white"/>
<path d="M5.25711 21.6143L1.97737 21.0135L0.041198 27.7991C-0.0511391 28.123 0.0136154 28.4717 0.216606 28.7406C0.419489 29.0095 0.736796 29.1676 1.07371 29.1676H5.25711V21.6143Z" fill="white"/>
<path d="M6.7605 21.89V29.1678H17.2685L22.5031 24.7734L6.7605 21.89Z" fill="white"/>
</svg>
