<svg width="103" height="24" viewBox="0 0 103 24" fill="none" xmlns="http://www.w3.org/2000/svg">
<path d="M55.6521 6.07371V6.3509H52.6456V6.07371C52.6456 5.66917 52.441 5.35703 52.0319 5.13728C51.6286 4.91254 51.0416 4.80016 50.2707 4.80016C49.5709 4.80016 49.0046 4.90005 48.5718 5.09982C48.127 5.2996 47.9046 5.59426 47.9046 5.98381C47.9046 6.50322 48.4532 6.86531 49.5502 7.07008C49.7815 7.11503 50.2914 7.19743 51.0801 7.31729C51.8688 7.43216 52.4855 7.53954 52.9302 7.63943C53.5114 7.77427 54.048 7.94658 54.5402 8.15634C55.0265 8.3661 55.4208 8.67575 55.7232 9.08528C56.0257 9.49481 56.1769 9.99424 56.1769 10.5836C56.1769 11.6224 55.6639 12.4315 54.6381 13.0108C53.6122 13.5901 52.1949 13.8798 50.3863 13.8798C48.5125 13.8798 47.0745 13.5851 46.0723 12.9958C45.0701 12.4065 44.5691 11.5525 44.5691 10.4337V10.0442H47.5755V10.4787C47.5755 10.9881 47.8098 11.3552 48.2782 11.5799C48.7467 11.8047 49.4494 11.9171 50.3863 11.9171C52.2424 11.9171 53.1704 11.4776 53.1704 10.5986C53.1704 10.1291 52.6248 9.79197 51.5337 9.58721C51.4863 9.57722 51.0267 9.5048 50.155 9.36995C49.2893 9.23011 48.6222 9.10026 48.1537 8.9804C47.5844 8.83556 47.0478 8.65077 46.5437 8.42603C46.0634 8.21128 45.6691 7.89414 45.3607 7.47462C45.0523 7.06508 44.8982 6.57314 44.8982 5.9988C44.8982 5.02491 45.3726 4.25329 46.3214 3.68394C47.2761 3.11958 48.5925 2.8374 50.2707 2.8374C51.9844 2.8374 53.3098 3.11459 54.2467 3.66895C55.1836 4.23331 55.6521 5.0349 55.6521 6.07371Z" fill="white"/>
<path d="M58.2887 2.8374H61.1706V4.88257V11.5425V13.8798H59.7297H58.2887V11.5425V4.88257V2.8374Z" fill="white"/>
<path d="M69.5665 7.63943H69.7533L72.742 2.8374H75.8908L71.2654 9.84941V13.8798H68.0544V9.84941L63.429 2.8374H66.5867L69.5665 7.63943Z" fill="white"/>
<path fill-rule="evenodd" clip-rule="evenodd" d="M82.8485 2.8374C79.7992 2.8374 77.3273 5.30933 77.3273 8.35861C77.3273 11.4079 79.7992 13.8798 82.8485 13.8798H96.5563C99.6056 13.8798 102.078 11.4079 102.078 8.35861C102.078 5.30933 99.6056 2.8374 96.5563 2.8374H82.8485ZM82.8485 5.50288C81.2713 5.50288 79.9927 6.78147 79.9927 8.35868C79.9927 9.93589 81.2713 11.2145 82.8485 11.2145H96.5563C98.1335 11.2145 99.4121 9.93589 99.4121 8.35868C99.4121 6.78147 98.1335 5.50288 96.5563 5.50288H82.8485Z" fill="white"/>
<path fill-rule="evenodd" clip-rule="evenodd" d="M32.5748 2.83716C29.5255 2.83716 27.0536 5.30909 27.0536 8.35836C27.0536 11.4076 29.5255 13.8796 32.5748 13.8796H36.7633C39.8125 13.8796 42.2845 11.4076 42.2845 8.35836C42.2845 5.30909 39.8125 2.83716 36.7633 2.83716H32.5748ZM32.5747 5.50264C30.9975 5.50264 29.7189 6.78122 29.7189 8.35843C29.7189 9.93565 30.9975 11.2142 32.5747 11.2142H36.7632C38.3404 11.2142 39.619 9.93565 39.619 8.35843C39.619 6.78122 38.3404 5.50264 36.7632 5.50264H32.5747Z" fill="white"/>
<path d="M29.591 20.76H29.0033V20.2057H26.9756V17.7821H27.5614V19.7274H28.6424V17.7821H29.2301V19.7274H29.591V20.76Z" fill="white"/>
<path d="M32.0921 20.2057H29.961V17.7821H32.0921V18.2435H30.5468V18.7421H31.8509V19.1849H30.5468V19.746H32.0921V20.2057Z" fill="white"/>
<path d="M35.0231 20.2057H34.4373V19.1815H33.1804V20.2057H32.5945V17.7821H33.1804V18.7032H34.4373V17.7821H35.0231V20.2057Z" fill="white"/>
<path d="M36.2655 18.2604H35.3786V17.7821H37.7401V18.2604H36.8532V20.2057H36.2655V18.2604Z" fill="white"/>
<path d="M39.1856 19.5787H38.6796V20.2057H38.0938V17.7821H39.1856C39.9329 17.7821 40.3065 18.0824 40.3065 18.6829C40.3065 19.2801 39.9329 19.5787 39.1856 19.5787ZM39.6953 18.6829C39.6953 18.39 39.5254 18.2435 39.1856 18.2435H38.6796V19.119H39.1856C39.5254 19.119 39.6953 18.9736 39.6953 18.6829Z" fill="white"/>
<path d="M43.9793 18.0829C44.2224 18.3083 44.3439 18.6119 44.3439 18.9939C44.3439 19.377 44.2224 19.6801 43.9793 19.9032C43.7375 20.1274 43.4092 20.2395 42.9945 20.2395C42.5797 20.2395 42.2521 20.1274 42.0114 19.9032C41.7684 19.6801 41.6469 19.377 41.6469 18.9939C41.6469 18.6119 41.7684 18.3083 42.0114 18.0829C42.2533 17.8599 42.5809 17.7483 42.9945 17.7483C43.408 17.7483 43.7363 17.8599 43.9793 18.0829ZM42.9963 19.7561C43.2297 19.7561 43.4104 19.6846 43.5386 19.5415C43.6668 19.3984 43.7309 19.2159 43.7309 18.9939C43.7309 18.7731 43.6668 18.5911 43.5386 18.448C43.4104 18.3049 43.2297 18.2334 42.9963 18.2334C42.7629 18.2334 42.5822 18.3049 42.454 18.448C42.3246 18.5922 42.2599 18.7742 42.2599 18.9939C42.2599 19.2147 42.3246 19.3973 42.454 19.5415C42.5822 19.6846 42.7629 19.7561 42.9963 19.7561Z" fill="white"/>
<path d="M47.2477 20.2057H46.66V18.2604H45.4485V20.2057H44.8626V17.7821H47.2477V20.2057Z" fill="white"/>
<path d="M48.4865 18.2604H47.5995V17.7821H49.961V18.2604H49.0741V20.2057H48.4865V18.2604Z" fill="white"/>
<path d="M52.4603 18.0829C52.7034 18.3083 52.8249 18.6119 52.8249 18.9939C52.8249 19.377 52.7034 19.6801 52.4603 19.9032C52.2185 20.1274 51.8902 20.2395 51.4755 20.2395C51.0608 20.2395 50.7331 20.1274 50.4924 19.9032C50.2494 19.6801 50.1279 19.377 50.1279 18.9939C50.1279 18.6119 50.2494 18.3083 50.4924 18.0829C50.7343 17.8599 51.062 17.7483 51.4755 17.7483C51.889 17.7483 52.2173 17.8599 52.4603 18.0829ZM51.4773 19.7561C51.7107 19.7561 51.8914 19.6846 52.0196 19.5415C52.1478 19.3984 52.2119 19.2159 52.2119 18.9939C52.2119 18.7731 52.1478 18.5911 52.0196 18.448C51.8914 18.3049 51.7107 18.2334 51.4773 18.2334C51.2439 18.2334 51.0632 18.3049 50.935 18.448C50.8056 18.5922 50.7409 18.7742 50.7409 18.9939C50.7409 19.2147 50.8056 19.3973 50.935 19.5415C51.0632 19.6846 51.2439 19.7561 51.4773 19.7561Z" fill="white"/>
<path d="M55.6017 19.528C55.6017 19.7747 55.5195 19.9494 55.3551 20.0519C55.1906 20.1544 54.921 20.2057 54.5461 20.2057H53.3436V17.7821H54.6096C55.184 17.7821 55.4711 17.9956 55.4711 18.4226C55.4711 18.4936 55.4578 18.5607 55.4312 18.6238C55.4058 18.6869 55.3732 18.7364 55.3333 18.7725C55.2559 18.8424 55.1858 18.8885 55.1229 18.9111L55.0812 18.9212V18.9466C55.0969 18.9488 55.1163 18.9522 55.1392 18.9567C55.1646 18.9623 55.2063 18.9781 55.2644 19.004C55.3273 19.0345 55.3799 19.0677 55.4222 19.1038C55.4718 19.1454 55.5141 19.2046 55.5491 19.2812C55.5842 19.3567 55.6017 19.439 55.6017 19.528ZM54.9887 19.4722C54.9887 19.2694 54.8502 19.168 54.5733 19.168H53.9295V19.773H54.5733C54.8502 19.773 54.9887 19.6727 54.9887 19.4722ZM54.8581 18.4953C54.8581 18.3083 54.7384 18.2148 54.499 18.2148H53.9295V18.7793H54.499C54.7384 18.7793 54.8581 18.6846 54.8581 18.4953Z" fill="white"/>
<path d="M58.3622 18.0829C58.6053 18.3083 58.7268 18.6119 58.7268 18.9939C58.7268 19.377 58.6053 19.6801 58.3622 19.9032C58.1204 20.1274 57.7921 20.2395 57.3774 20.2395C56.9626 20.2395 56.635 20.1274 56.3943 19.9032C56.1513 19.6801 56.0298 19.377 56.0298 18.9939C56.0298 18.6119 56.1513 18.3083 56.3943 18.0829C56.6362 17.8599 56.9638 17.7483 57.3774 17.7483C57.7909 17.7483 58.1192 17.8599 58.3622 18.0829ZM57.3792 19.7561C57.6126 19.7561 57.7933 19.6846 57.9215 19.5415C58.0497 19.3984 58.1138 19.2159 58.1138 18.9939C58.1138 18.7731 58.0497 18.5911 57.9215 18.448C57.7933 18.3049 57.6126 18.2334 57.3792 18.2334C57.1458 18.2334 56.9651 18.3049 56.8369 18.448C56.7075 18.5922 56.6428 18.7742 56.6428 18.9939C56.6428 19.2147 56.7075 19.3973 56.8369 19.5415C56.9651 19.6846 57.1458 19.7561 57.3792 19.7561Z" fill="white"/>
<path d="M61.0067 17.3613C60.8918 17.4458 60.7183 17.488 60.4861 17.488C60.254 17.488 60.0804 17.4458 59.9656 17.3613C59.8519 17.279 59.7951 17.1472 59.7951 16.9658V16.9421H60.2141V16.9658C60.2141 17.0909 60.3047 17.1534 60.4861 17.1534C60.6663 17.1534 60.7564 17.0909 60.7564 16.9658V16.9421H61.1772V16.9658C61.1772 17.1472 61.1203 17.279 61.0067 17.3613ZM61.1844 18.306L61.0647 18.6136L60.0508 20.2057H59.2455V17.7821H59.8314V19.4097L59.7497 19.7173H59.806L59.9257 19.4097L60.9395 17.7821H61.7448V20.2057H61.159V18.6136L61.2406 18.306H61.1844Z" fill="white"/>
<path d="M63.7109 18.2604H62.824V17.7821H65.1855V18.2604H64.2986V20.2057H63.7109V18.2604Z" fill="white"/>
<path d="M67.6848 18.0829C67.9279 18.3083 68.0494 18.6119 68.0494 18.9939C68.0494 19.377 67.9279 19.6801 67.6848 19.9032C67.443 20.1274 67.1147 20.2395 66.7 20.2395C66.2852 20.2395 65.9575 20.1274 65.7169 19.9032C65.4739 19.6801 65.3524 19.377 65.3524 18.9939C65.3524 18.6119 65.4739 18.3083 65.7169 18.0829C65.9588 17.8599 66.2864 17.7483 66.7 17.7483C67.1135 17.7483 67.4418 17.8599 67.6848 18.0829ZM66.7018 19.7561C66.9351 19.7561 67.1159 19.6846 67.2441 19.5415C67.3723 19.3984 67.4363 19.2159 67.4363 18.9939C67.4363 18.7731 67.3723 18.5911 67.2441 18.448C67.1159 18.3049 66.9351 18.2334 66.7018 18.2334C66.4684 18.2334 66.2876 18.3049 66.1595 18.448C66.0301 18.5922 65.9654 18.7742 65.9654 18.9939C65.9654 19.2147 66.0301 19.3973 66.1595 19.5415C66.2876 19.6846 66.4684 19.7561 66.7018 19.7561Z" fill="white"/>
<path d="M69.66 19.5787H69.1539V20.2057H68.5681V17.7821H69.66C70.4072 17.7821 70.7809 18.0824 70.7809 18.6829C70.7809 19.2801 70.4072 19.5787 69.66 19.5787ZM70.1696 18.6829C70.1696 18.39 69.9997 18.2435 69.66 18.2435H69.1539V19.119H69.66C69.9997 19.119 70.1696 18.9736 70.1696 18.6829Z" fill="white"/>
<path d="M71.2851 17.7821H73.2911V18.2604H71.8709V20.2057H71.2851V17.7821Z" fill="white"/>
<path d="M75.7342 18.0829C75.9772 18.3083 76.0987 18.6119 76.0987 18.9939C76.0987 19.377 75.9772 19.6801 75.7342 19.9032C75.4923 20.1274 75.1641 20.2395 74.7493 20.2395C74.3346 20.2395 74.0069 20.1274 73.7663 19.9032C73.5232 19.6801 73.4017 19.377 73.4017 18.9939C73.4017 18.6119 73.5232 18.3083 73.7663 18.0829C74.0081 17.8599 74.3358 17.7483 74.7493 17.7483C75.1628 17.7483 75.4911 17.8599 75.7342 18.0829ZM74.7511 19.7561C74.9845 19.7561 75.1653 19.6846 75.2934 19.5415C75.4216 19.3984 75.4857 19.2159 75.4857 18.9939C75.4857 18.7731 75.4216 18.5911 75.2934 18.448C75.1653 18.3049 74.9845 18.2334 74.7511 18.2334C74.5178 18.2334 74.337 18.3049 74.2088 18.448C74.0794 18.5922 74.0148 18.7742 74.0148 18.9939C74.0148 19.2147 74.0794 19.3973 74.2088 19.5415C74.337 19.6846 74.5178 19.7561 74.7511 19.7561Z" fill="white"/>
<path d="M78.8756 19.528C78.8756 19.7747 78.7933 19.9494 78.6289 20.0519C78.4644 20.1544 78.1948 20.2057 77.82 20.2057H76.6175V17.7821H77.8834C78.4578 17.7821 78.745 17.9956 78.745 18.4226C78.745 18.4936 78.7317 18.5607 78.7051 18.6238C78.6797 18.6869 78.647 18.7364 78.6071 18.7725C78.5297 18.8424 78.4596 18.8885 78.3967 18.9111L78.355 18.9212V18.9466C78.3707 18.9488 78.3901 18.9522 78.4131 18.9567C78.4384 18.9623 78.4802 18.9781 78.5382 19.004C78.6011 19.0345 78.6537 19.0677 78.696 19.1038C78.7456 19.1454 78.7879 19.2046 78.823 19.2812C78.858 19.3567 78.8756 19.439 78.8756 19.528ZM78.2625 19.4722C78.2625 19.2694 78.1241 19.168 77.8472 19.168H77.2033V19.773H77.8472C78.1241 19.773 78.2625 19.6727 78.2625 19.4722ZM78.1319 18.4953C78.1319 18.3083 78.0122 18.2148 77.7728 18.2148H77.2033V18.7793H77.7728C78.0122 18.7793 78.1319 18.6846 78.1319 18.4953Z" fill="white"/>
<path d="M79.0569 20.2192L79.0225 20.2091V19.697C79.0624 19.7037 79.1047 19.7071 79.1494 19.7071C79.251 19.7071 79.3242 19.675 79.3689 19.6108C79.4124 19.5499 79.4445 19.4485 79.465 19.3066L79.67 17.7821H81.627V20.2057H81.0393V18.2604H80.2123L80.0527 19.4097C80.0116 19.7015 79.9372 19.9127 79.8296 20.0434C79.722 20.1741 79.546 20.2395 79.3018 20.2395C79.199 20.2395 79.1174 20.2327 79.0569 20.2192Z" fill="white"/>
<path d="M84.1608 18.306L84.0411 18.6136L83.0272 20.2057H82.2219V17.7821H82.8077V19.4097L82.7261 19.7173H82.7823L82.902 19.4097L83.9159 17.7821H84.7212V20.2057H84.1354V18.6136L84.217 18.306H84.1608Z" fill="white"/>
<path d="M18.9303 7.23841C18.6295 7.84075 17.179 10.3142 12.5561 12.9833C7.95432 15.6401 4.90155 15.7595 4.17666 15.7445C4.20494 15.795 4.23039 15.8467 4.25932 15.8969C4.38022 16.1063 4.51009 16.3061 4.6458 16.5008C5.9189 16.4433 8.82643 16.016 12.9365 13.643C16.9794 11.3088 18.7032 9.10008 19.3558 8.03564C19.2519 7.8138 19.1403 7.59378 19.0158 7.37812C18.9888 7.32992 18.9589 7.28429 18.9303 7.23841Z" fill="white"/>
<path d="M5.6973 17.6853L5.68853 17.7326L5.68958 17.7329C5.9712 18.0082 6.2694 18.2612 6.58158 18.4912C7.96245 18.4642 10.6685 18.0794 14.3087 15.9777C17.7115 14.0131 19.3593 12.0337 20.1166 10.8315C20.0783 10.4232 20.0103 10.0153 19.9121 9.61072C19.6217 10.266 18.2745 12.8087 13.9283 15.318C8.90504 18.2181 5.72854 17.6915 5.6973 17.6853Z" fill="white"/>
<path d="M17.7118 5.66272C17.524 5.47218 17.3279 5.29169 17.1259 5.12077C16.849 5.78052 15.6608 7.93069 11.268 10.4668C6.87631 13.0024 4.06918 13.1299 3.24466 13.1008C3.28926 13.3578 3.34693 13.6138 3.41645 13.8682C4.54857 13.875 7.3847 13.5882 11.6485 11.1265C15.7688 8.74766 17.2248 6.63772 17.7118 5.66272Z" fill="white"/>
<path d="M8.13197 19.3961C8.85835 19.7229 9.62688 19.9475 10.4136 20.0627C11.7138 19.8427 13.4706 19.3102 15.587 18.0883C17.4749 16.9984 18.6907 15.8959 19.4785 14.9596C19.8207 14.1496 20.0356 13.2904 20.1167 12.4134C20.0175 12.7565 19.2066 15.1192 15.2063 17.4288C11.1906 19.7468 8.52173 19.4551 8.13197 19.3961Z" fill="white"/>
<path d="M20.8682 12.553C20.8705 12.5443 20.8735 12.5314 20.8743 12.5283L20.87 12.5269C20.8689 12.5362 20.8694 12.5445 20.8682 12.553Z" fill="white"/>
<path d="M8.02275 4.90284C8.99193 4.29536 9.52096 3.66192 9.7568 3.3279C9.22865 3.44729 8.70554 3.6196 8.19604 3.84517C7.91954 3.96787 7.64646 4.10488 7.37869 4.25947C7.11851 4.40968 6.87048 4.57179 6.63179 4.74477C6.16817 5.08103 5.74672 5.45758 5.36991 5.86727C5.75077 5.8149 6.77962 5.62452 7.82858 5.0189C7.89341 4.98191 7.95865 4.94337 8.02275 4.90284Z" fill="white"/>
<path d="M16.1604 18.9466C15.8258 19.1543 15.4886 19.3121 15.173 19.4341C14.7094 19.7703 14.2883 20.1475 13.9108 20.5576C14.2923 20.504 15.3212 20.3145 16.3705 19.7087C16.4348 19.6715 16.5 19.6321 16.5641 19.5916C17.534 18.9846 18.0625 18.351 18.2988 18.0171C17.7698 18.1357 17.247 18.3087 16.7371 18.535C16.5669 18.6706 16.3804 18.809 16.1604 18.9466Z" fill="white"/>
<path d="M12.8118 3.20536C12.5427 3.16812 12.272 3.14325 12.0011 3.13086C11.6405 3.82839 10.7631 5.02744 8.6807 6.22973C6.60421 7.42859 4.96961 7.71896 4.05195 7.77217C3.9238 8.02466 3.80764 8.28343 3.70557 8.54681C4.6276 8.5522 6.54264 8.34394 9.06134 6.88977C11.5546 5.4494 12.477 3.9834 12.8118 3.20536Z" fill="white"/>
<path d="M15.4915 4.04421C15.2643 3.92955 15.0321 3.82579 14.7966 3.73176C14.4641 4.51291 13.3509 6.4351 9.93591 8.40674C6.7511 10.2455 4.33656 10.3456 3.2353 10.259C3.19344 10.5109 3.1635 10.7652 3.14437 11.0207C4.35926 11.1274 6.92313 11.0255 10.3167 9.06626C13.8573 7.02208 15.089 4.97831 15.4915 4.04421Z" fill="white"/>
</svg>
