<svg width="225" height="54" viewBox="0 0 225 54" fill="none" xmlns="http://www.w3.org/2000/svg">
<path d="M122.669 14.0651V14.6761H116.042V14.0651C116.042 13.1735 115.591 12.4854 114.689 12.001C113.8 11.5057 112.506 11.258 110.807 11.258C109.265 11.258 108.016 11.4781 107.062 11.9185C106.082 12.3588 105.592 13.0083 105.592 13.867C105.592 15.0119 106.801 15.81 109.219 16.2613C109.729 16.3604 110.853 16.542 112.591 16.8063C114.33 17.0594 115.689 17.2961 116.669 17.5163C117.95 17.8135 119.133 18.1933 120.218 18.6557C121.29 19.118 122.159 19.8006 122.826 20.7033C123.492 21.606 123.826 22.7068 123.826 24.0058C123.826 26.2956 122.695 28.0789 120.434 29.3559C118.172 30.6329 115.048 31.2714 111.062 31.2714C106.932 31.2714 103.762 30.6219 101.553 29.3229C99.344 28.0239 98.2395 26.1414 98.2395 23.6755V22.8169H104.866V23.7746C104.866 24.8975 105.383 25.7066 106.415 26.202C107.448 26.6974 108.997 26.9451 111.062 26.9451C115.153 26.9451 117.199 25.9763 117.199 24.0388C117.199 23.004 115.996 22.261 113.591 21.8096C113.487 21.7876 112.474 21.628 110.552 21.3307C108.644 21.0225 107.173 20.7363 106.141 20.4721C104.886 20.1528 103.703 19.7455 102.592 19.2501C101.533 18.7768 100.664 18.0777 99.9844 17.153C99.3048 16.2503 98.9649 15.166 98.9649 13.9C98.9649 11.7534 100.011 10.0525 102.102 8.79758C104.206 7.55362 107.108 6.93164 110.807 6.93164C114.584 6.93164 117.506 7.54261 119.571 8.76455C121.636 10.0085 122.669 11.7754 122.669 14.0651Z" fill="white"/>
<path d="M128.48 6.93164H134.833V11.4396V26.1194V31.2714H131.657H128.48V26.1194V11.4396V6.93164Z" fill="white"/>
<path d="M153.339 17.5163H153.751L160.338 6.93164H167.279L157.084 22.3876V31.2714H150.006V22.3876L139.811 6.93164H146.771L153.339 17.5163Z" fill="white"/>
<path fill-rule="evenodd" clip-rule="evenodd" d="M182.615 6.93164C175.894 6.93164 170.445 12.3803 170.445 19.1015C170.445 25.8228 175.894 31.2714 182.615 31.2714H212.83C219.551 31.2714 225 25.8228 225 19.1015C225 12.3803 219.551 6.93164 212.83 6.93164H182.615ZM182.615 12.8067C179.139 12.8067 176.32 15.6249 176.32 19.1014C176.32 22.5779 179.139 25.3962 182.615 25.3962H212.83C216.307 25.3962 219.125 22.5779 219.125 19.1014C219.125 15.6249 216.307 12.8067 212.83 12.8067H182.615Z" fill="white"/>
<path fill-rule="evenodd" clip-rule="evenodd" d="M71.8015 6.93213C65.0803 6.93213 59.6317 12.3808 59.6317 19.102C59.6317 25.8232 65.0803 31.2719 71.8015 31.2719H81.0339C87.7551 31.2719 93.2037 25.8232 93.2037 19.102C93.2037 12.3808 87.7551 6.93213 81.0339 6.93213H71.8015ZM71.8015 12.8067C68.325 12.8067 65.5067 15.6249 65.5067 19.1014C65.5067 22.5779 68.325 25.3962 71.8015 25.3962H81.0338C84.5103 25.3962 87.3286 22.5779 87.3286 19.1014C87.3286 15.6249 84.5103 12.8067 81.0338 12.8067H71.8015Z" fill="white"/>
<path d="M65.2247 46.4369H63.9294V45.215H59.4598V39.873H60.7511V44.1608H63.1338V39.873H64.4291V44.1608H65.2247V46.4369Z" fill="white"/>
<path d="M70.7377 45.215H66.0402V39.873H70.7377V40.89H67.3315V41.9889H70.206V42.9649H67.3315V44.2017H70.7377V45.215Z" fill="white"/>
<path d="M77.1982 45.215H75.9069V42.9575H73.1364V45.215H71.8451V39.873H73.1364V41.9032H75.9069V39.873H77.1982V45.215Z" fill="white"/>
<path d="M79.9367 40.9272H77.9818V39.873H83.187V40.9272H81.232V45.215H79.9367V40.9272Z" fill="white"/>
<path d="M86.3733 43.8329H85.2579V45.215H83.9666V39.873H86.3733C88.0204 39.873 88.8439 40.5348 88.8439 41.8585C88.8439 43.1748 88.0204 43.8329 86.3733 43.8329ZM87.4967 41.8585C87.4967 41.2128 87.1222 40.89 86.3733 40.89H85.2579V42.8197H86.3733C87.1222 42.8197 87.4967 42.4993 87.4967 41.8585Z" fill="white"/>
<path d="M96.9396 40.5361C97.4753 41.0328 97.7431 41.7021 97.7431 42.544C97.7431 43.3884 97.4753 44.0565 96.9396 44.5482C96.4065 45.0424 95.6829 45.2895 94.7687 45.2895C93.8546 45.2895 93.1323 45.0424 92.6019 44.5482C92.0662 44.0565 91.7983 43.3884 91.7983 42.544C91.7983 41.7021 92.0662 41.0328 92.6019 40.5361C93.1349 40.0443 93.8572 39.7984 94.7687 39.7984C95.6802 39.7984 96.4039 40.0443 96.9396 40.5361ZM94.7727 44.2241C95.2871 44.2241 95.6856 44.0664 95.9681 43.751C96.2506 43.4356 96.3919 43.0332 96.3919 42.544C96.3919 42.0572 96.2506 41.6561 95.9681 41.3407C95.6856 41.0253 95.2871 40.8676 94.7727 40.8676C94.2583 40.8676 93.8599 41.0253 93.5774 41.3407C93.2922 41.6586 93.1496 42.0597 93.1496 42.544C93.1496 43.0308 93.2922 43.4331 93.5774 43.751C93.8599 44.0664 94.2583 44.2241 94.7727 44.2241Z" fill="white"/>
<path d="M104.144 45.215H102.848V40.9272H100.178V45.215H98.8865V39.873H104.144V45.215Z" fill="white"/>
<path d="M106.874 40.9272H104.919V39.873H110.124V40.9272H108.17V45.215H106.874V40.9272Z" fill="white"/>
<path d="M115.633 40.5361C116.169 41.0328 116.437 41.7021 116.437 42.544C116.437 43.3884 116.169 44.0565 115.633 44.5482C115.1 45.0424 114.377 45.2895 113.463 45.2895C112.548 45.2895 111.826 45.0424 111.296 44.5482C110.76 44.0565 110.492 43.3884 110.492 42.544C110.492 41.7021 110.76 41.0328 111.296 40.5361C111.829 40.0443 112.551 39.7984 113.463 39.7984C114.374 39.7984 115.098 40.0443 115.633 40.5361ZM113.467 44.2241C113.981 44.2241 114.379 44.0664 114.662 43.751C114.945 43.4356 115.086 43.0332 115.086 42.544C115.086 42.0572 114.945 41.6561 114.662 41.3407C114.379 41.0253 113.981 40.8676 113.467 40.8676C112.952 40.8676 112.554 41.0253 112.271 41.3407C111.986 41.6586 111.844 42.0597 111.844 42.544C111.844 43.0308 111.986 43.4331 112.271 43.751C112.554 44.0664 112.952 44.2241 113.467 44.2241Z" fill="white"/>
<path d="M122.558 43.7212C122.558 44.2651 122.377 44.65 122.014 44.876C121.652 45.102 121.057 45.215 120.231 45.215H117.58V39.873H120.371C121.637 39.873 122.27 40.3436 122.27 41.2848C122.27 41.4413 122.241 41.5891 122.182 41.7281C122.126 41.8672 122.054 41.9765 121.966 42.056C121.795 42.21 121.641 42.3118 121.502 42.3614L121.41 42.3838V42.4397C121.445 42.4446 121.488 42.4521 121.538 42.462C121.594 42.4744 121.686 42.5092 121.814 42.5663C121.953 42.6334 122.069 42.7067 122.162 42.7861C122.271 42.878 122.365 43.0084 122.442 43.1773C122.519 43.3437 122.558 43.525 122.558 43.7212ZM121.206 43.5982C121.206 43.1512 120.901 42.9277 120.291 42.9277H118.872V44.2613H120.291C120.901 44.2613 121.206 44.0403 121.206 43.5982ZM120.919 41.445C120.919 41.0328 120.655 40.8266 120.127 40.8266H118.872V42.0709H120.127C120.655 42.0709 120.919 41.8623 120.919 41.445Z" fill="white"/>
<path d="M128.642 40.5361C129.178 41.0328 129.446 41.7021 129.446 42.544C129.446 43.3884 129.178 44.0565 128.642 44.5482C128.109 45.0424 127.386 45.2895 126.472 45.2895C125.557 45.2895 124.835 45.0424 124.305 44.5482C123.769 44.0565 123.501 43.3884 123.501 42.544C123.501 41.7021 123.769 41.0328 124.305 40.5361C124.838 40.0443 125.56 39.7984 126.472 39.7984C127.383 39.7984 128.107 40.0443 128.642 40.5361ZM126.476 44.2241C126.99 44.2241 127.388 44.0664 127.671 43.751C127.954 43.4356 128.095 43.0332 128.095 42.544C128.095 42.0572 127.954 41.6561 127.671 41.3407C127.388 41.0253 126.99 40.8676 126.476 40.8676C125.961 40.8676 125.563 41.0253 125.28 41.3407C124.995 41.6586 124.853 42.0597 124.853 42.544C124.853 43.0308 124.995 43.4331 125.28 43.751C125.563 44.0664 125.961 44.2241 126.476 44.2241Z" fill="white"/>
<path d="M134.471 38.9454C134.218 39.1316 133.836 39.2248 133.324 39.2248C132.812 39.2248 132.43 39.1316 132.177 38.9454C131.926 38.7641 131.801 38.4735 131.801 38.0736V38.0215H132.724V38.0736C132.724 38.3493 132.924 38.4871 133.324 38.4871C133.721 38.4871 133.92 38.3493 133.92 38.0736V38.0215H134.847V38.0736C134.847 38.4735 134.722 38.7641 134.471 38.9454ZM134.863 41.0278L134.599 41.7058L132.364 45.215H130.589V39.873H131.881V43.4604L131.701 44.1384H131.825L132.089 43.4604L134.323 39.873H136.098V45.215H134.807V41.7058L134.987 41.0278H134.863Z" fill="white"/>
<path d="M140.432 40.9272H138.477V39.873H143.682V40.9272H141.727V45.215H140.432V40.9272Z" fill="white"/>
<path d="M149.191 40.5361C149.727 41.0328 149.995 41.7021 149.995 42.544C149.995 43.3884 149.727 44.0565 149.191 44.5482C148.658 45.0424 147.935 45.2895 147.021 45.2895C146.106 45.2895 145.384 45.0424 144.854 44.5482C144.318 44.0565 144.05 43.3884 144.05 42.544C144.05 41.7021 144.318 41.0328 144.854 40.5361C145.387 40.0443 146.109 39.7984 147.021 39.7984C147.932 39.7984 148.656 40.0443 149.191 40.5361ZM147.025 44.2241C147.539 44.2241 147.937 44.0664 148.22 43.751C148.502 43.4356 148.644 43.0332 148.644 42.544C148.644 42.0572 148.502 41.6561 148.22 41.3407C147.937 41.0253 147.539 40.8676 147.025 40.8676C146.51 40.8676 146.112 41.0253 145.829 41.3407C145.544 41.6586 145.401 42.0597 145.401 42.544C145.401 43.0308 145.544 43.4331 145.829 43.751C146.112 44.0664 146.51 44.2241 147.025 44.2241Z" fill="white"/>
<path d="M153.545 43.8329H152.43V45.215H151.138V39.873H153.545C155.192 39.873 156.016 40.5348 156.016 41.8585C156.016 43.1748 155.192 43.8329 153.545 43.8329ZM154.668 41.8585C154.668 41.2128 154.294 40.89 153.545 40.89H152.43V42.8197H153.545C154.294 42.8197 154.668 42.4993 154.668 41.8585Z" fill="white"/>
<path d="M157.127 39.873H161.549V40.9272H158.418V45.215H157.127V39.873Z" fill="white"/>
<path d="M166.934 40.5361C167.47 41.0328 167.737 41.7021 167.737 42.544C167.737 43.3884 167.47 44.0565 166.934 44.5482C166.401 45.0424 165.677 45.2895 164.763 45.2895C163.849 45.2895 163.127 45.0424 162.596 44.5482C162.06 44.0565 161.793 43.3884 161.793 42.544C161.793 41.7021 162.06 41.0328 162.596 40.5361C163.129 40.0443 163.851 39.7984 164.763 39.7984C165.674 39.7984 166.398 40.0443 166.934 40.5361ZM164.767 44.2241C165.281 44.2241 165.68 44.0664 165.962 43.751C166.245 43.4356 166.386 43.0332 166.386 42.544C166.386 42.0572 166.245 41.6561 165.962 41.3407C165.68 41.0253 165.281 40.8676 164.767 40.8676C164.253 40.8676 163.854 41.0253 163.572 41.3407C163.286 41.6586 163.144 42.0597 163.144 42.544C163.144 43.0308 163.286 43.4331 163.572 43.751C163.854 44.0664 164.253 44.2241 164.767 44.2241Z" fill="white"/>
<path d="M173.858 43.7212C173.858 44.2651 173.677 44.65 173.314 44.876C172.952 45.102 172.358 45.215 171.531 45.215H168.881V39.873H171.671C172.937 39.873 173.57 40.3436 173.57 41.2848C173.57 41.4413 173.541 41.5891 173.482 41.7281C173.426 41.8672 173.354 41.9765 173.266 42.056C173.096 42.21 172.941 42.3118 172.803 42.3614L172.711 42.3838V42.4397C172.745 42.4446 172.788 42.4521 172.839 42.462C172.895 42.4744 172.987 42.5092 173.114 42.5663C173.253 42.6334 173.369 42.7067 173.462 42.7861C173.572 42.878 173.665 43.0084 173.742 43.1773C173.819 43.3437 173.858 43.525 173.858 43.7212ZM172.507 43.5982C172.507 43.1512 172.202 42.9277 171.591 42.9277H170.172V44.2613H171.591C172.202 44.2613 172.507 44.0403 172.507 43.5982ZM172.219 41.445C172.219 41.0328 171.955 40.8266 171.427 40.8266H170.172V42.0709H171.427C171.955 42.0709 172.219 41.8623 172.219 41.445Z" fill="white"/>
<path d="M174.258 45.2448L174.182 45.2225V44.0937C174.27 44.1086 174.363 44.1161 174.462 44.1161C174.686 44.1161 174.847 44.0453 174.945 43.9037C175.041 43.7696 175.112 43.5461 175.157 43.2332L175.609 39.873H179.923V45.215H178.628V40.9272H176.804L176.453 43.4604C176.362 44.1036 176.198 44.5693 175.961 44.8574C175.724 45.1455 175.336 45.2895 174.798 45.2895C174.571 45.2895 174.391 45.2746 174.258 45.2448Z" fill="white"/>
<path d="M185.508 41.0278L185.244 41.7058L183.009 45.215H181.234V39.873H182.525V43.4604L182.345 44.1384H182.469L182.733 43.4604L184.968 39.873H186.743V45.215H185.452V41.7058L185.632 41.0278H185.508Z" fill="white"/>
<path d="M41.7262 16.6327C41.0633 17.9603 37.8661 23.4124 27.6763 29.2955C17.533 35.1517 10.8041 35.415 9.20623 35.3819C9.26857 35.4932 9.32466 35.6072 9.38845 35.7177C9.65493 36.1792 9.9412 36.6197 10.2403 37.0488C13.0465 36.9221 19.4553 35.9802 28.5148 30.7496C37.4261 25.6047 41.2258 20.7362 42.6642 18.3899C42.4352 17.9009 42.1891 17.416 41.9147 16.9406C41.8553 16.8344 41.7895 16.7338 41.7262 16.6327Z" fill="white"/>
<path d="M12.558 39.6599L12.5387 39.7641L12.541 39.7647C13.1618 40.3716 13.8191 40.9293 14.5071 41.4362C17.5509 41.3768 23.5156 40.5285 31.5393 35.896C39.0398 31.5656 42.672 27.2027 44.3412 24.5527C44.2567 23.6527 44.1068 22.7536 43.8905 21.8618C43.2503 23.3062 40.2807 28.9108 30.7008 34.4418C19.6286 40.8344 12.6269 39.6735 12.558 39.6599Z" fill="white"/>
<path d="M39.0405 13.1592C38.6265 12.7393 38.1942 12.3414 37.749 11.9647C37.1387 13.4189 34.5196 18.1583 24.8371 23.7485C15.1568 29.3374 8.96932 29.6186 7.1519 29.5543C7.2502 30.1207 7.37732 30.685 7.53056 31.2459C10.026 31.2608 16.2774 30.6287 25.6757 25.2026C34.7577 19.9591 37.967 15.3083 39.0405 13.1592Z" fill="white"/>
<path d="M17.9246 43.4308C19.5257 44.1511 21.2197 44.6462 22.9537 44.9C25.8196 44.4152 29.6921 43.2415 34.3571 40.5482C38.5183 38.1457 41.1983 35.7156 42.9346 33.6519C43.6889 31.8664 44.1626 29.9725 44.3414 28.0395C44.1228 28.7957 42.3353 34.0037 33.5178 39.0945C24.6664 44.2039 18.7837 43.5609 17.9246 43.4308Z" fill="white"/>
<path d="M45.9979 28.3472C46.003 28.328 46.0094 28.2995 46.0113 28.2927L46.0018 28.2895C45.9993 28.3101 46.0004 28.3285 45.9979 28.3472Z" fill="white"/>
<path d="M17.6838 11.4845C19.8201 10.1455 20.9862 8.74924 21.506 8.013C20.3418 8.27615 19.1888 8.65595 18.0658 9.15316C17.4563 9.42362 16.8544 9.7256 16.2642 10.0664C15.6907 10.3975 15.1439 10.7548 14.6178 11.1361C13.5959 11.8773 12.667 12.7072 11.8364 13.6103C12.6759 13.4949 14.9437 13.0752 17.2558 11.7403C17.3987 11.6588 17.5425 11.5738 17.6838 11.4845Z" fill="white"/>
<path d="M35.621 42.4401C34.8833 42.898 34.1401 43.2457 33.4444 43.5146C32.4225 44.2558 31.4943 45.0872 30.6623 45.9911C31.5031 45.8729 33.7711 45.4552 36.0839 44.1198C36.2257 44.038 36.3693 43.9512 36.5106 43.8618C38.6485 42.5239 39.8134 41.1273 40.3344 40.3914C39.1683 40.6528 38.0161 41.034 36.892 41.5328C36.517 41.8317 36.1059 42.1369 35.621 42.4401Z" fill="white"/>
<path d="M28.2398 7.74307C27.6468 7.66097 27.0501 7.60616 26.4528 7.57884C25.6581 9.11635 23.7242 11.7593 19.1341 14.4094C14.557 17.0519 10.9541 17.692 8.93132 17.8093C8.64887 18.3658 8.39281 18.9362 8.16783 19.5167C10.2002 19.5286 14.4213 19.0696 19.9731 15.8643C25.4687 12.6894 27.5019 9.45803 28.2398 7.74307Z" fill="white"/>
<path d="M34.1464 9.59245C33.6458 9.33973 33.1338 9.11101 32.6149 8.90376C31.882 10.6256 29.4282 14.8625 21.9008 19.2084C14.8808 23.2614 9.55869 23.4819 7.13128 23.2911C7.03902 23.8464 6.97302 24.4068 6.93086 24.97C9.60873 25.2052 15.26 24.9807 22.7401 20.6621C30.5444 16.1563 33.2592 11.6514 34.1464 9.59245Z" fill="white"/>
</svg>
