<svg width="137" height="32" viewBox="0 0 137 32" fill="none" xmlns="http://www.w3.org/2000/svg">
<path d="M74.2031 8.09828V8.46786H70.1945V8.09828C70.1945 7.5589 69.9217 7.14271 69.3762 6.84971C68.8385 6.55005 68.0558 6.40022 67.0279 6.40022C66.095 6.40022 65.3399 6.5334 64.7627 6.79976C64.1697 7.06613 63.8732 7.45901 63.8732 7.97842C63.8732 8.67096 64.6046 9.15375 66.0673 9.42677C66.3756 9.4867 67.0556 9.59657 68.1072 9.75639C69.1587 9.90955 69.981 10.0527 70.574 10.1859C71.3489 10.3657 72.0644 10.5954 72.7206 10.8751C73.369 11.1548 73.8948 11.5677 74.298 12.1137C74.7012 12.6597 74.9029 13.3257 74.9029 14.1114C74.9029 15.4965 74.2189 16.5753 72.8511 17.3477C71.4833 18.1202 69.5936 18.5064 67.1821 18.5064C64.6836 18.5064 62.7663 18.1135 61.4301 17.3278C60.0939 16.542 59.4258 15.4033 59.4258 13.9117V13.3922H63.4344V13.9716C63.4344 14.6508 63.7467 15.1403 64.3713 15.4399C64.9959 15.7396 65.9329 15.8894 67.1821 15.8894C69.6569 15.8894 70.8942 15.3034 70.8942 14.1314C70.8942 13.5055 70.1668 13.056 68.712 12.7829C68.6488 12.7696 68.036 12.6731 66.8738 12.4933C65.7194 12.3068 64.8299 12.1337 64.2053 11.9739C63.4463 11.7808 62.7307 11.5344 62.0587 11.2347C61.4182 10.9484 60.8924 10.5255 60.4813 9.96615C60.0702 9.42011 59.8646 8.76419 59.8646 7.9984C59.8646 6.69988 60.4971 5.67105 61.7622 4.91192C63.0351 4.15944 64.7904 3.7832 67.0279 3.7832C69.3129 3.7832 71.08 4.15278 72.3293 4.89194C73.5785 5.64441 74.2031 6.71319 74.2031 8.09828Z" fill="#282F39"/>
<path d="M77.7186 3.7832H81.5612V6.51009V15.39V18.5064H79.6399H77.7186V15.39V6.51009V3.7832Z" fill="#282F39"/>
<path d="M92.7555 10.1859H93.0046L96.9895 3.7832H101.188L95.0208 13.1325V18.5064H90.7394V13.1325L84.5723 3.7832H88.7825L92.7555 10.1859Z" fill="#282F39"/>
<path fill-rule="evenodd" clip-rule="evenodd" d="M110.464 3.7832C106.398 3.7832 103.103 7.07911 103.103 11.1448C103.103 15.2105 106.398 18.5064 110.464 18.5064H128.741C132.807 18.5064 136.103 15.2105 136.103 11.1448C136.103 7.07911 132.807 3.7832 128.741 3.7832H110.464ZM110.464 7.33692C108.361 7.33692 106.656 9.0417 106.656 11.1446C106.656 13.2476 108.361 14.9524 110.464 14.9524H128.741C130.844 14.9524 132.549 13.2476 132.549 11.1446C132.549 9.0417 130.844 7.33692 128.741 7.33692H110.464Z" fill="#282F39"/>
<path fill-rule="evenodd" clip-rule="evenodd" d="M43.4329 3.78369C39.3672 3.78369 36.0713 7.0796 36.0713 11.1453C36.0713 15.211 39.3672 18.5069 43.4329 18.5069H49.0176C53.0833 18.5069 56.3792 15.211 56.3792 11.1453C56.3792 7.0796 53.0833 3.78369 49.0176 3.78369H43.4329ZM43.4331 7.33692C41.3301 7.33692 39.6253 9.0417 39.6253 11.1446C39.6253 13.2476 41.3301 14.9524 43.4331 14.9524H49.0177C51.1207 14.9524 52.8255 13.2476 52.8255 11.1446C52.8255 9.0417 51.1207 7.33692 49.0177 7.33692H43.4331Z" fill="#282F39"/>
<path d="M39.455 27.6799H38.6714V26.9408H35.9678V23.7093H36.7489V26.303H38.1902V23.7093H38.9737V26.303H39.455V27.6799Z" fill="#FF6505"/>
<path d="M42.7898 26.9408H39.9483V23.7093H42.7898V24.3245H40.7294V24.9893H42.4682V25.5797H40.7294V26.3278H42.7898V26.9408Z" fill="#FF6505"/>
<path d="M46.6978 26.9408H45.9167V25.5752H44.2408V26.9408H43.4597V23.7093H44.2408V24.9374H45.9167V23.7093H46.6978V26.9408Z" fill="#FF6505"/>
<path d="M48.3544 24.347H47.1718V23.7093H50.3204V24.347H49.1379V26.9408H48.3544V24.347Z" fill="#FF6505"/>
<path d="M52.2478 26.1047H51.5731V26.9408H50.792V23.7093H52.2478C53.2442 23.7093 53.7424 24.1097 53.7424 24.9104C53.7424 25.7066 53.2442 26.1047 52.2478 26.1047ZM52.9274 24.9104C52.9274 24.5198 52.7009 24.3245 52.2478 24.3245H51.5731V25.4918H52.2478C52.7009 25.4918 52.9274 25.298 52.9274 24.9104Z" fill="#FF6505"/>
<path d="M58.6394 24.1104C58.9635 24.4109 59.1255 24.8158 59.1255 25.325C59.1255 25.8358 58.9635 26.2399 58.6394 26.5374C58.317 26.8363 57.8793 26.9858 57.3263 26.9858C56.7733 26.9858 56.3364 26.8363 56.0156 26.5374C55.6915 26.2399 55.5295 25.8358 55.5295 25.325C55.5295 24.8158 55.6915 24.4109 56.0156 24.1104C56.338 23.813 56.7749 23.6642 57.3263 23.6642C57.8777 23.6642 58.3154 23.813 58.6394 24.1104ZM57.3287 26.3413C57.6399 26.3413 57.8809 26.2459 58.0518 26.0551C58.2227 25.8644 58.3081 25.621 58.3081 25.325C58.3081 25.0306 58.2227 24.788 58.0518 24.5972C57.8809 24.4064 57.6399 24.311 57.3287 24.311C57.0176 24.311 56.7765 24.4064 56.6056 24.5972C56.4331 24.7895 56.3469 25.0321 56.3469 25.325C56.3469 25.6195 56.4331 25.8629 56.6056 26.0551C56.7765 26.2459 57.0176 26.3413 57.3287 26.3413Z" fill="#FF6505"/>
<path d="M62.9972 26.9408H62.2137V24.347H60.5983V26.9408H59.8172V23.7093H62.9972V26.9408Z" fill="#FF6505"/>
<path d="M64.6489 24.347H63.4664V23.7093H66.615V24.347H65.4325V26.9408H64.6489V24.347Z" fill="#FF6505"/>
<path d="M69.9475 24.1104C70.2715 24.4109 70.4335 24.8158 70.4335 25.325C70.4335 25.8358 70.2715 26.2399 69.9475 26.5374C69.625 26.8363 69.1873 26.9858 68.6343 26.9858C68.0813 26.9858 67.6444 26.8363 67.3236 26.5374C66.9995 26.2399 66.8375 25.8358 66.8375 25.325C66.8375 24.8158 66.9995 24.4109 67.3236 24.1104C67.646 23.813 68.0829 23.6642 68.6343 23.6642C69.1857 23.6642 69.6234 23.813 69.9475 24.1104ZM68.6367 26.3413C68.9479 26.3413 69.1889 26.2459 69.3598 26.0551C69.5307 25.8644 69.6161 25.621 69.6161 25.325C69.6161 25.0306 69.5307 24.788 69.3598 24.5972C69.1889 24.4064 68.9479 24.311 68.6367 24.311C68.3256 24.311 68.0845 24.4064 67.9137 24.5972C67.7411 24.7895 67.6549 25.0321 67.6549 25.325C67.6549 25.6195 67.7411 25.8629 67.9137 26.0551C68.0845 26.2459 68.3256 26.3413 68.6367 26.3413Z" fill="#FF6505"/>
<path d="M74.136 26.0371C74.136 26.3661 74.0263 26.599 73.8071 26.7357C73.5878 26.8724 73.2283 26.9408 72.7285 26.9408H71.1252V23.7093H72.8132C73.579 23.7093 73.9618 23.994 73.9618 24.5634C73.9618 24.658 73.9441 24.7474 73.9086 24.8315C73.8748 24.9157 73.8313 24.9818 73.7781 25.0298C73.6749 25.123 73.5814 25.1846 73.4975 25.2146L73.4419 25.2281V25.2619C73.4629 25.2649 73.4887 25.2694 73.5193 25.2755C73.5532 25.283 73.6088 25.304 73.6862 25.3386C73.77 25.3791 73.8401 25.4234 73.8966 25.4715C73.9627 25.5271 74.0191 25.606 74.0658 25.7081C74.1126 25.8088 74.136 25.9184 74.136 26.0371ZM73.3186 25.9628C73.3186 25.6923 73.134 25.5571 72.7648 25.5571H71.9063V26.3639H72.7648C73.134 26.3639 73.3186 26.2302 73.3186 25.9628ZM73.1445 24.6603C73.1445 24.4109 72.9849 24.2862 72.6656 24.2862H71.9063V25.0388H72.6656C72.9849 25.0388 73.1445 24.9127 73.1445 24.6603Z" fill="#FF6505"/>
<path d="M77.8166 24.1104C78.1407 24.4109 78.3027 24.8158 78.3027 25.325C78.3027 25.8358 78.1407 26.2399 77.8166 26.5374C77.4942 26.8363 77.0565 26.9858 76.5035 26.9858C75.9505 26.9858 75.5136 26.8363 75.1928 26.5374C74.8687 26.2399 74.7067 25.8358 74.7067 25.325C74.7067 24.8158 74.8687 24.4109 75.1928 24.1104C75.5152 23.813 75.9521 23.6642 76.5035 23.6642C77.0549 23.6642 77.4926 23.813 77.8166 24.1104ZM76.5059 26.3413C76.8171 26.3413 77.0581 26.2459 77.229 26.0551C77.3999 25.8644 77.4853 25.621 77.4853 25.325C77.4853 25.0306 77.3999 24.788 77.229 24.5972C77.0581 24.4064 76.8171 24.311 76.5059 24.311C76.1948 24.311 75.9537 24.4064 75.7828 24.5972C75.6103 24.7895 75.5241 25.0321 75.5241 25.325C75.5241 25.6195 75.6103 25.8629 75.7828 26.0551C75.9537 26.2459 76.1948 26.3413 76.5059 26.3413Z" fill="#FF6505"/>
<path d="M81.3425 23.1482C81.1894 23.2609 80.958 23.3172 80.6485 23.3172C80.3389 23.3172 80.1076 23.2609 79.9544 23.1482C79.8029 23.0385 79.7271 22.8628 79.7271 22.6209V22.5894H80.2857V22.6209C80.2857 22.7877 80.4066 22.871 80.6485 22.871C80.8887 22.871 81.0088 22.7877 81.0088 22.6209V22.5894H81.5699V22.6209C81.5699 22.8628 81.4941 23.0385 81.3425 23.1482ZM81.5795 24.4079L81.4199 24.818L80.0681 26.9408H78.9944V23.7093H79.7755V25.8794L79.6666 26.2895H79.7416L79.9012 25.8794L81.2531 23.7093H82.3268V26.9408H81.5457V24.818L81.6545 24.4079H81.5795Z" fill="#FF6505"/>
<path d="M84.9482 24.347H83.7657V23.7093H86.9143V24.347H85.7318V26.9408H84.9482V24.347Z" fill="#FF6505"/>
<path d="M90.2467 24.1104C90.5708 24.4109 90.7328 24.8158 90.7328 25.325C90.7328 25.8358 90.5708 26.2399 90.2467 26.5374C89.9243 26.8363 89.4866 26.9858 88.9336 26.9858C88.3806 26.9858 87.9437 26.8363 87.6229 26.5374C87.2988 26.2399 87.1368 25.8358 87.1368 25.325C87.1368 24.8158 87.2988 24.4109 87.6229 24.1104C87.9453 23.813 88.3822 23.6642 88.9336 23.6642C89.485 23.6642 89.9227 23.813 90.2467 24.1104ZM88.936 26.3413C89.2472 26.3413 89.4882 26.2459 89.6591 26.0551C89.83 25.8644 89.9154 25.621 89.9154 25.325C89.9154 25.0306 89.83 24.788 89.6591 24.5972C89.4882 24.4064 89.2472 24.311 88.936 24.311C88.6249 24.311 88.3838 24.4064 88.213 24.5972C88.0404 24.7895 87.9542 25.0321 87.9542 25.325C87.9542 25.6195 88.0404 25.8629 88.213 26.0551C88.3838 26.2459 88.6249 26.3413 88.936 26.3413Z" fill="#FF6505"/>
<path d="M92.8803 26.1047H92.2056V26.9408H91.4245V23.7093H92.8803C93.8766 23.7093 94.3748 24.1097 94.3748 24.9104C94.3748 25.7066 93.8766 26.1047 92.8803 26.1047ZM93.5598 24.9104C93.5598 24.5198 93.3333 24.3245 92.8803 24.3245H92.2056V25.4918H92.8803C93.3333 25.4918 93.5598 25.298 93.5598 24.9104Z" fill="#FF6505"/>
<path d="M95.0471 23.7093H97.7217V24.347H95.8282V26.9408H95.0471V23.7093Z" fill="#FF6505"/>
<path d="M100.979 24.1104C101.303 24.4109 101.465 24.8158 101.465 25.325C101.465 25.8358 101.303 26.2399 100.979 26.5374C100.657 26.8363 100.219 26.9858 99.6661 26.9858C99.1131 26.9858 98.6762 26.8363 98.3553 26.5374C98.0313 26.2399 97.8693 25.8358 97.8693 25.325C97.8693 24.8158 98.0313 24.4109 98.3553 24.1104C98.6778 23.813 99.1147 23.6642 99.6661 23.6642C100.217 23.6642 100.655 23.813 100.979 24.1104ZM99.6685 26.3413C99.9796 26.3413 100.221 26.2459 100.392 26.0551C100.562 25.8644 100.648 25.621 100.648 25.325C100.648 25.0306 100.562 24.788 100.392 24.5972C100.221 24.4064 99.9796 24.311 99.6685 24.311C99.3573 24.311 99.1163 24.4064 98.9454 24.5972C98.7729 24.7895 98.6867 25.0321 98.6867 25.325C98.6867 25.6195 98.7729 25.8629 98.9454 26.0551C99.1163 26.2459 99.3573 26.3413 99.6685 26.3413Z" fill="#FF6505"/>
<path d="M105.168 26.0371C105.168 26.3661 105.058 26.599 104.839 26.7357C104.62 26.8724 104.26 26.9408 103.76 26.9408H102.157V23.7093H103.845C104.611 23.7093 104.994 23.994 104.994 24.5634C104.994 24.658 104.976 24.7474 104.94 24.8315C104.907 24.9157 104.863 24.9818 104.81 25.0298C104.707 25.123 104.613 25.1846 104.529 25.2146L104.474 25.2281V25.2619C104.495 25.2649 104.52 25.2694 104.551 25.2755C104.585 25.283 104.641 25.304 104.718 25.3386C104.802 25.3791 104.872 25.4234 104.928 25.4715C104.994 25.5271 105.051 25.606 105.098 25.7081C105.144 25.8088 105.168 25.9184 105.168 26.0371ZM104.35 25.9628C104.35 25.6923 104.166 25.5571 103.797 25.5571H102.938V26.3639H103.797C104.166 26.3639 104.35 26.2302 104.35 25.9628ZM104.176 24.6603C104.176 24.4109 104.017 24.2862 103.697 24.2862H102.938V25.0388H103.697C104.017 25.0388 104.176 24.9127 104.176 24.6603Z" fill="#FF6505"/>
<path d="M105.41 26.9588L105.364 26.9453V26.2625C105.417 26.2715 105.473 26.276 105.533 26.276C105.668 26.276 105.766 26.2332 105.826 26.1475C105.884 26.0664 105.926 25.9312 105.954 25.7419L106.227 23.7093H108.836V26.9408H108.053V24.347H106.95L106.737 25.8794C106.682 26.2685 106.583 26.5502 106.44 26.7244C106.296 26.8987 106.062 26.9858 105.736 26.9858C105.599 26.9858 105.49 26.9768 105.41 26.9588Z" fill="#FF6505"/>
<path d="M112.215 24.4079L112.055 24.818L110.703 26.9408H109.63V23.7093H110.411V25.8794L110.302 26.2895H110.377L110.536 25.8794L111.888 23.7093H112.962V26.9408H112.181V24.818L112.29 24.4079H112.215Z" fill="#FF6505"/>
<path d="M25.2402 9.65154C24.8392 10.4547 22.9052 13.7526 16.7413 17.3113C10.6056 20.8538 6.53528 21.0131 5.56875 20.993C5.60646 21.0604 5.64039 21.1293 5.67898 21.1961C5.84017 21.4753 6.01334 21.7418 6.19428 22.0014C7.89174 21.9247 11.7685 21.3549 17.2486 18.191C22.6391 15.0788 24.9375 12.1338 25.8076 10.7145C25.6691 10.4187 25.5202 10.1254 25.3542 9.83781C25.3183 9.77355 25.2785 9.71271 25.2402 9.65154Z" fill="#FF6505"/>
<path d="M7.5966 23.5807L7.58492 23.6438L7.5863 23.6441C7.96181 24.0112 8.35941 24.3486 8.77564 24.6552C10.6168 24.6193 14.2249 24.1061 19.0785 21.3039C23.6155 18.6845 25.8127 16.0453 26.8223 14.4423C26.7712 13.8979 26.6806 13.354 26.5497 12.8146C26.1625 13.6883 24.3662 17.0786 18.5712 20.4243C11.8736 24.2912 7.63826 23.5889 7.5966 23.5807Z" fill="#FF6505"/>
<path d="M23.6155 7.55045C23.3651 7.2964 23.1036 7.05575 22.8342 6.82785C22.4651 7.70752 20.8808 10.5744 15.0238 13.9559C9.16817 17.3367 5.42533 17.5068 4.32597 17.4679C4.38543 17.8105 4.46233 18.1519 4.55502 18.4911C6.06452 18.5001 9.84603 18.1178 15.5311 14.8355C21.0249 11.6637 22.9661 8.85045 23.6155 7.55045Z" fill="#FF6505"/>
<path d="M10.8422 25.8617C11.8107 26.2973 12.8354 26.5968 13.8844 26.7504C15.6179 26.4571 17.9605 25.7471 20.7823 24.1179C23.2995 22.6647 24.9206 21.1947 25.9709 19.9463C26.4272 18.8663 26.7137 17.7207 26.8218 16.5514C26.6896 17.0088 25.6084 20.1592 20.2746 23.2386C14.9204 26.3293 11.3619 25.9403 10.8422 25.8617Z" fill="#FF6505"/>
<path d="M27.8241 16.7375C27.8272 16.7259 27.8311 16.7086 27.8322 16.7045L27.8265 16.7026C27.825 16.7151 27.8256 16.7262 27.8241 16.7375Z" fill="#FF6505"/>
<path d="M10.6972 6.53712C11.9894 5.72715 12.6948 4.88256 13.0092 4.43721C12.305 4.59639 11.6076 4.82613 10.9282 5.12689C10.5596 5.2905 10.1954 5.47317 9.83842 5.67929C9.49151 5.87958 9.1608 6.09572 8.84255 6.32636C8.2244 6.77471 7.66246 7.27677 7.16004 7.82303C7.66785 7.7532 9.03965 7.49936 10.4383 6.69187C10.5247 6.64255 10.6117 6.59116 10.6972 6.53712Z" fill="#FF6505"/>
<path d="M21.5468 25.2625C21.1006 25.5394 20.651 25.7498 20.2302 25.9124C19.612 26.3607 19.0506 26.8637 18.5473 27.4105C19.0559 27.339 20.4278 27.0863 21.8268 26.2785C21.9126 26.229 21.9995 26.1765 22.085 26.1225C23.3782 25.3131 24.0828 24.4683 24.398 24.0232C23.6926 24.1813 22.9956 24.4119 22.3157 24.7136C22.0888 24.8944 21.8401 25.079 21.5468 25.2625Z" fill="#FF6505"/>
<path d="M17.0824 4.27414C16.7237 4.22448 16.3628 4.19133 16.0015 4.1748C15.5208 5.10484 14.3509 6.70358 11.5744 8.30663C8.8057 9.90511 6.62623 10.2923 5.40268 10.3632C5.23182 10.6999 5.07693 11.0449 4.94084 11.3961C6.17022 11.4033 8.7236 11.1256 12.0819 9.18668C15.4062 7.2662 16.6361 5.31153 17.0824 4.27414Z" fill="#FF6505"/>
<path d="M20.6554 5.3926C20.3526 5.23973 20.0429 5.10137 19.729 4.97601C19.2857 6.01753 17.8014 8.58046 13.248 11.2093C9.00163 13.661 5.78224 13.7944 4.3139 13.679C4.25809 14.0148 4.21816 14.3539 4.19266 14.6946C5.81251 14.8368 9.23101 14.701 13.7557 12.0887C18.4766 9.3631 20.1188 6.63807 20.6554 5.3926Z" fill="#FF6505"/>
</svg>
