<svg width="40" height="40" viewBox="0 0 40 40" fill="none" xmlns="http://www.w3.org/2000/svg">
<path d="M20 0C8.95453 0 0 8.95453 0 20C0 31.0455 8.95453 40 20 40C31.0455 40 40 31.0455 40 20C40 8.95453 31.0455 0 20 0ZM20 36.6666C10.7955 36.6666 3.33336 29.2045 3.33336 20C3.33336 10.7955 10.7955 3.33336 20 3.33336C29.2045 3.33336 36.6666 10.7955 36.6666 20C36.6666 29.2045 29.2045 36.6666 20 36.6666Z" fill="#FF6629"/>
<path d="M26.9998 13H12.9996C12.2264 13 11.5996 13.6268 11.5996 14.4C11.5996 15.1732 12.2264 15.8 12.9996 15.8H26.9997C27.7729 15.8 28.3997 15.1732 28.3997 14.4C28.3998 13.6269 27.773 13 26.9998 13Z" fill="#FF6629"/>
<path d="M26.9998 18.6001H12.9996C12.2264 18.6001 11.5996 19.2269 11.5996 20.0001C11.5996 20.7733 12.2264 21.4001 12.9996 21.4001H26.9997C27.7729 21.4001 28.3997 20.7733 28.3997 20.0001C28.3997 19.2269 27.773 18.6001 26.9998 18.6001Z" fill="#FF6629"/>
<path d="M26.9998 24.2002H12.9996C12.2264 24.2002 11.5996 24.827 11.5996 25.6002C11.5996 26.3734 12.2264 27.0002 12.9996 27.0002H26.9997C27.7729 27.0002 28.3997 26.3734 28.3997 25.6002C28.3998 24.827 27.773 24.2002 26.9998 24.2002Z" fill="#FF6629"/>
</svg>
