<svg width="24" height="24" viewBox="0 0 24 24" fill="none" xmlns="http://www.w3.org/2000/svg">
<path d="M23.0884 0.91144C22.3399 0.162925 21.2032 -0.126721 19.7097 0.050517C17.3853 0.326429 13.4103 1.36346 9.58314 2.69249C7.0653 3.56682 2.60697 5.26799 1.03762 6.83735C-0.31827 8.17341 -0.364021 9.77727 1.01071 11.0822C2.44249 12.4552 5.53569 13.5754 7.87845 14.2732C8.76966 14.5387 9.45948 15.228 9.72368 16.1171C10.6297 18.8917 12.0614 23.9087 15.003 23.9999C15.7474 23.9999 16.4738 23.6509 17.1625 22.9622C20.4153 19.1263 23.3503 8.54715 23.9494 4.29002C24.1266 2.79674 23.8369 1.66 23.0884 0.91144ZM22.0873 4.0691C21.5219 8.833 17.8768 19.5962 15.8366 21.6364C15.1536 22.3193 14.8066 22.2172 14.3299 21.7502C13.4547 20.8926 12.4309 18.6447 11.5209 15.583C11.0756 14.0847 9.91404 12.9233 8.41368 12.4763C5.42647 11.5864 3.20117 10.585 2.30842 9.72889C2.11187 9.54041 1.87702 9.26163 1.87435 9.00368C2.27537 6.46689 15.8178 2.38606 19.9307 1.91248C20.5452 1.83958 21.3618 1.83672 21.7625 2.23733C22.1631 2.63797 22.1603 3.45455 22.0873 4.0691ZM12.2345 12.7029C11.4113 12.7079 10.9805 11.69 11.5716 11.1025L18.0873 4.5867C19.0019 3.74214 20.2574 4.99897 19.4132 5.91254L12.8974 12.4283C12.7143 12.6113 12.4744 12.7029 12.2345 12.7029Z" fill="white"/>
</svg>
