<svg width="30" height="30" viewBox="0 0 30 30" fill="none" xmlns="http://www.w3.org/2000/svg">
<g clip-path="url(#clip0)">
<path d="M4.45312 10.6055C6.07359 10.6055 7.55678 9.71883 8.32406 8.29148C8.71805 7.56105 9.58582 7.08984 10.5351 7.08984H12.4337C13.3829 7.08984 14.2507 7.56105 14.6438 8.29061C15.412 9.71883 16.8952 10.6055 18.5156 10.6055C20.9387 10.6055 22.9102 8.63397 22.9102 6.21094C22.9102 3.78791 20.9387 1.81641 18.5156 1.81641C16.8952 1.81641 15.412 2.70305 14.6447 4.13039C14.2507 4.86082 13.3829 5.33203 12.4337 5.33203H10.5351C9.58582 5.33203 8.71805 4.86082 8.32494 4.13127C7.55678 2.70305 6.07359 1.81641 4.45312 1.81641C2.0301 1.81641 0 3.78791 0 6.21094C0 8.63397 2.0301 10.6055 4.45312 10.6055ZM17.6367 5.33203H19.3945V7.08984H17.6367V5.33203Z" fill="#FF6629"/>
<path d="M4.45312 28.1836C6.07359 28.1836 7.55678 27.297 8.32406 25.8696C8.71805 25.1392 9.58582 24.668 10.5351 24.668H12.4337C13.3829 24.668 14.2507 25.1392 14.6438 25.8687C15.412 27.297 16.8952 28.1836 18.5156 28.1836C20.9387 28.1836 22.9102 26.2121 22.9102 23.7891C22.9102 21.366 20.9387 19.3945 18.5156 19.3945C16.8952 19.3945 15.412 20.2812 14.6447 21.7085C14.2507 22.4389 13.3829 22.9102 12.4337 22.9102H10.5351C9.58582 22.9102 8.71805 22.4389 8.32494 21.7094C7.55678 20.2812 6.07359 19.3945 4.45312 19.3945C2.0301 19.3945 0 21.366 0 23.7891C0 26.2121 2.0301 28.1836 4.45312 28.1836ZM17.6367 22.9102H19.3945V24.668H17.6367V22.9102Z" fill="#FF6629"/>
<path d="M21.6759 12.9195C21.282 13.6499 20.4142 14.1211 19.4649 14.1211H17.5663C16.6171 14.1211 15.7493 13.6499 15.3562 12.9203C14.588 11.4921 13.1048 10.6055 11.4844 10.6055C9.06135 10.6055 7.08984 12.577 7.08984 15C7.08984 17.423 9.06135 19.3945 11.4844 19.3945C13.1048 19.3945 14.588 18.5079 15.3553 17.0805C15.7493 16.3501 16.6171 15.8789 17.5663 15.8789H19.4649C20.4142 15.8789 21.282 16.3501 21.6751 17.0797C22.4432 18.5079 23.9264 19.3945 25.5469 19.3945C27.9699 19.3945 30 17.423 30 15C30 12.577 27.9699 10.6055 25.5469 10.6055C23.9264 10.6055 22.4432 11.4921 21.6759 12.9195ZM12.3633 15.8789H10.6055V14.1211H12.3633V15.8789Z" fill="#FF6629"/>
</g>
<defs>
<clipPath id="clip0">
<rect width="30" height="30" fill="white"/>
</clipPath>
</defs>
</svg>
