<svg width="20" height="12" viewBox="0 0 20 12" fill="none" xmlns="http://www.w3.org/2000/svg">
<path d="M1.67144 5.16274H17.1687L13.4708 1.42922C13.1469 1.10235 13.1469 0.572112 13.4708 0.245295C13.7948 -0.0817649 14.32 -0.0817649 14.6435 0.245295L19.757 5.40794C20.081 5.73481 20.081 6.2651 19.757 6.59186L14.6435 11.7548C14.4815 11.9183 14.2693 12 14.0571 12C13.845 12 13.6327 11.9183 13.4708 11.7548C13.1469 11.4279 13.1469 10.8976 13.4708 10.5709L17.1687 6.83716H1.67144C1.21348 6.83716 0.842106 6.46228 0.842106 5.99993C0.842106 5.53758 1.21343 5.16274 1.67144 5.16274Z" fill="#531800"/>
</svg>
