<svg width="20" height="12" viewBox="0 0 20 12" fill="none" xmlns="http://www.w3.org/2000/svg">
<path d="M18.3286 5.16274H2.83132L6.52918 1.42922C6.85314 1.10235 6.85314 0.572112 6.52918 0.245295C6.20523 -0.0817649 5.68002 -0.0817649 5.35654 0.245295L0.242968 5.40794C-0.0809892 5.73481 -0.0809892 6.2651 0.242968 6.59186L5.35654 11.7548C5.51847 11.9183 5.73069 12 5.94286 12C6.15503 12 6.36725 11.9183 6.52918 11.7548C6.85314 11.4279 6.85314 10.8976 6.52918 10.5709L2.83132 6.83716H18.3286C18.7865 6.83716 19.1579 6.46228 19.1579 5.99993C19.1579 5.53758 18.7866 5.16274 18.3286 5.16274Z" fill="black"/>
</svg>
