<svg width="23" height="22" viewBox="0 0 23 22" fill="none" xmlns="http://www.w3.org/2000/svg">
<g id="instagram">
<path id="surface1" opacity="0.3" fill-rule="evenodd" clip-rule="evenodd" d="M6.61111 0C3.23604 0 0.5 2.73604 0.5 6.11111V15.8889C0.5 19.264 3.23604 22 6.61111 22H16.3889C19.764 22 22.5 19.264 22.5 15.8889V6.11111C22.5 2.73604 19.764 0 16.3889 0H6.61111ZM18.8335 2.44452C19.5057 2.44452 20.0557 2.99452 20.0557 3.66674C20.0557 4.33896 19.5057 4.88896 18.8335 4.88896C18.1612 4.88896 17.6112 4.33896 17.6112 3.66674C17.6112 2.99452 18.1612 2.44452 18.8335 2.44452ZM11.4999 4.8889C14.875 4.8889 17.611 7.62494 17.611 11C17.611 14.3751 14.875 17.1111 11.4999 17.1111C8.12481 17.1111 5.38877 14.3751 5.38877 11C5.38877 7.62494 8.12481 4.8889 11.4999 4.8889ZM11.4993 7.33342C10.1889 7.33386 8.97824 8.03336 8.32341 9.16843C7.66858 10.3035 7.66905 11.7017 8.32463 12.8363C8.98022 13.9709 10.1913 14.6696 11.5017 14.6692C13.5274 14.6685 15.1691 13.0258 15.1684 11.0001C15.1677 8.97437 13.525 7.33275 11.4993 7.33342Z" fill="#531800"/>
</g>
</svg>
