<svg width="24" height="30" viewBox="0 0 24 30" fill="none" xmlns="http://www.w3.org/2000/svg">
<path d="M11.5731 0.00763552C5.6128 0.21677 0.661233 4.86694 0.0891886 10.8027C-0.0276807 11.9898 0.0399806 13.14 0.249115 14.2411C0.249115 14.2411 0.267568 14.3703 0.329078 14.6163C0.513609 15.4405 0.790405 16.2402 1.13486 16.9906C2.33431 19.8323 5.10842 24.5871 11.3333 29.7601C11.7146 30.0799 12.2744 30.0799 12.6619 29.7601C18.8867 24.5932 21.6608 19.8385 22.8664 16.9844C23.217 16.234 23.4877 15.4405 23.6722 14.6101C23.7276 14.3703 23.7522 14.2349 23.7522 14.2349C23.8936 13.4968 23.9674 12.7402 23.9674 11.9652C23.9674 5.21139 18.3762 -0.232254 11.5731 0.00763552ZM11.9976 17.9194C8.78673 17.9194 6.18485 15.3175 6.18485 12.1067C6.18485 8.89585 8.78673 6.29397 11.9976 6.29397C15.2084 6.29397 17.8103 8.89585 17.8103 12.1067C17.8103 15.3175 15.2084 17.9194 11.9976 17.9194Z" fill="#FF6629"/>
</svg>
