<svg width="16" height="22" viewBox="0 0 16 22" fill="none" xmlns="http://www.w3.org/2000/svg">
<path fill-rule="evenodd" clip-rule="evenodd" d="M0.530273 8.00992C0.530273 3.86902 3.84717 0.5 7.92432 0.5C12.0012 0.5 15.3184 3.86902 15.3184 8.00992V14.0133C15.3184 18.1414 12.0012 21.5 7.92432 21.5C3.84717 21.5 0.530273 18.1312 0.530273 13.9903V8.00992ZM7.92419 20.1093C11.2346 20.1093 13.9275 17.3746 13.9275 14.0132V8.00989C13.9275 4.63574 11.2346 1.89069 7.92419 1.89069C4.61403 1.89069 1.9209 4.63574 1.9209 8.00989V13.99C1.9209 17.3642 4.61403 20.1093 7.92419 20.1093Z" fill="white"/>
<path d="M7.92389 6.24829C7.53982 6.24829 7.22852 6.5596 7.22852 6.94367V9.37746C7.22852 9.76153 7.53982 10.0728 7.92389 10.0728C8.30796 10.0728 8.61927 9.76153 8.61927 9.37746V6.94367C8.61927 6.5596 8.30796 6.24829 7.92389 6.24829Z" fill="white"/>
</svg>
