<svg width="27" height="22" viewBox="0 0 27 22" fill="none" xmlns="http://www.w3.org/2000/svg">
<g id="iconmonstr-telegram-1">
<path id="telegram-1" opacity="0.3" fill-rule="evenodd" clip-rule="evenodd" d="M20.2596 21.7571C20.6144 22.0079 21.0717 22.0706 21.4795 21.9166C21.8872 21.7615 22.187 21.4139 22.2773 20.9926C23.235 16.5002 25.558 5.12947 26.4296 1.04296C26.4958 0.734964 26.3856 0.414864 26.1431 0.209163C25.9007 0.00346303 25.5646 -0.055937 25.2648 0.0551631C20.6442 1.76237 6.41406 7.09187 0.597721 9.24017C0.228552 9.37657 -0.0116835 9.73077 0.000438434 10.1191C0.0136624 10.5085 0.275938 10.8462 0.653923 10.9595C3.26235 11.7383 6.68626 12.8218 6.68626 12.8218C6.68626 12.8218 8.28636 17.6453 9.12057 20.0983C9.22526 20.4063 9.4666 20.6483 9.78508 20.7319C10.1025 20.8144 10.4419 20.7275 10.6788 20.5042C12.0188 19.2414 14.0906 17.2889 14.0906 17.2889C14.0906 17.2889 18.0269 20.1698 20.2596 21.7571ZM8.12646 12.2124L9.97672 18.3042L10.3878 14.4465C10.3878 14.4465 17.5364 8.01038 21.6116 4.34188C21.7306 4.23408 21.7472 4.05368 21.648 3.92718C21.5499 3.80068 21.3692 3.77098 21.2336 3.85678C16.5105 6.86748 8.12646 12.2124 8.12646 12.2124Z" fill="#531800"/>
</g>
</svg>
