<svg width="225" height="53" viewBox="0 0 225 53" fill="none" xmlns="http://www.w3.org/2000/svg">
<path d="M122.669 13.3872V13.9981H116.042V13.3872C116.042 12.4955 115.591 11.8074 114.689 11.3231C113.8 10.8277 112.506 10.58 110.807 10.58C109.264 10.58 108.016 10.8002 107.062 11.2405C106.082 11.6808 105.592 12.3303 105.592 13.189C105.592 14.3339 106.801 15.132 109.219 15.5834C109.728 15.6824 110.853 15.8641 112.591 16.1283C114.329 16.3815 115.689 16.6181 116.669 16.8383C117.95 17.1355 119.133 17.5153 120.218 17.9777C121.29 18.4401 122.159 19.1226 122.825 20.0253C123.492 20.928 123.825 22.0288 123.825 23.3278C123.825 25.6176 122.695 27.401 120.433 28.6779C118.172 29.9549 115.048 30.5934 111.062 30.5934C106.931 30.5934 103.762 29.9439 101.553 28.6449C99.3437 27.3459 98.2393 25.4635 98.2393 22.9976V22.1389H104.866V23.0966C104.866 24.2195 105.382 25.0286 106.415 25.524C107.448 26.0194 108.996 26.2671 111.062 26.2671C115.153 26.2671 117.198 25.2983 117.198 23.3608C117.198 22.326 115.996 21.583 113.591 21.1316C113.486 21.1096 112.473 20.95 110.552 20.6528C108.644 20.3445 107.173 20.0583 106.141 19.7941C104.886 19.4749 103.703 19.0675 102.592 18.5722C101.533 18.0988 100.664 17.3998 99.9842 16.475C99.3045 15.5723 98.9647 14.488 98.9647 13.222C98.9647 11.0754 100.01 9.37457 102.102 8.1196C104.206 6.87564 107.108 6.25366 110.807 6.25366C114.584 6.25366 117.506 6.86463 119.571 8.08658C121.636 9.33053 122.669 11.0974 122.669 13.3872Z" fill="#282F39"/>
<path d="M128.48 6.25366H134.833V10.7616V25.4415V30.5934H131.656H128.48V25.4415V10.7616V6.25366Z" fill="#282F39"/>
<path d="M153.339 16.8383H153.751L160.338 6.25366H167.279L157.084 21.7096V30.5934H150.006V21.7096L139.811 6.25366H146.771L153.339 16.8383Z" fill="#282F39"/>
<path fill-rule="evenodd" clip-rule="evenodd" d="M182.615 6.25366C175.894 6.25366 170.445 11.7023 170.445 18.4235C170.445 25.1448 175.894 30.5934 182.615 30.5934H212.83C219.551 30.5934 225 25.1448 225 18.4235C225 11.7023 219.551 6.25366 212.83 6.25366H182.615ZM182.615 12.1287C179.139 12.1287 176.32 14.9469 176.32 18.4234C176.32 21.8999 179.139 24.7182 182.615 24.7182H212.83C216.307 24.7182 219.125 21.8999 219.125 18.4234C219.125 14.9469 216.307 12.1287 212.83 12.1287H182.615Z" fill="#282F39"/>
<path fill-rule="evenodd" clip-rule="evenodd" d="M71.8017 6.25415C65.0805 6.25415 59.6318 11.7028 59.6318 18.424C59.6318 25.1453 65.0805 30.5939 71.8017 30.5939H81.034C87.7553 30.5939 93.2039 25.1453 93.2039 18.424C93.2039 11.7028 87.7553 6.25415 81.034 6.25415H71.8017ZM71.8017 12.1287C68.3252 12.1287 65.5069 14.9469 65.5069 18.4234C65.5069 21.8999 68.3252 24.7182 71.8017 24.7182H81.034C84.5105 24.7182 87.3288 21.8999 87.3288 18.4234C87.3288 14.9469 84.5105 12.1287 81.034 12.1287H71.8017Z" fill="#282F39"/>
<path d="M65.2249 45.7589H63.9296V44.537H59.46V39.195H60.7513V43.4828H63.134V39.195H64.4293V43.4828H65.2249V45.7589Z" fill="#FF6505"/>
<path d="M70.7379 44.537H66.0404V39.195H70.7379V40.212H67.3317V41.3109H70.2062V42.287H67.3317V43.5238H70.7379V44.537Z" fill="#FF6505"/>
<path d="M77.1984 44.537H75.9071V42.2795H73.1366V44.537H71.8453V39.195H73.1366V41.2253H75.9071V39.195H77.1984V44.537Z" fill="#FF6505"/>
<path d="M79.9369 40.2492H77.982V39.195H83.1872V40.2492H81.2322V44.537H79.9369V40.2492Z" fill="#FF6505"/>
<path d="M86.3734 43.155H85.258V44.537H83.9667V39.195H86.3734C88.0206 39.195 88.8441 39.8568 88.8441 41.1806C88.8441 42.4968 88.0206 43.155 86.3734 43.155ZM87.4968 41.1806C87.4968 40.5348 87.1224 40.212 86.3734 40.212H85.258V42.1417H86.3734C87.1224 42.1417 87.4968 41.8213 87.4968 41.1806Z" fill="#FF6505"/>
<path d="M96.9397 39.8581C97.4755 40.3548 97.7433 41.0241 97.7433 41.866C97.7433 42.7104 97.4755 43.3785 96.9397 43.8702C96.4067 44.3644 95.6831 44.6115 94.7689 44.6115C93.8547 44.6115 93.1325 44.3644 92.6021 43.8702C92.0664 43.3785 91.7985 42.7104 91.7985 41.866C91.7985 41.0241 92.0664 40.3548 92.6021 39.8581C93.1351 39.3663 93.8574 39.1205 94.7689 39.1205C95.6804 39.1205 96.404 39.3663 96.9397 39.8581ZM94.7729 43.5461C95.2873 43.5461 95.6858 43.3884 95.9683 43.073C96.2508 42.7576 96.392 42.3553 96.392 41.866C96.392 41.3792 96.2508 40.9781 95.9683 40.6627C95.6858 40.3473 95.2873 40.1896 94.7729 40.1896C94.2585 40.1896 93.8601 40.3473 93.5776 40.6627C93.2924 40.9806 93.1498 41.3817 93.1498 41.866C93.1498 42.3528 93.2924 42.7551 93.5776 43.073C93.8601 43.3884 94.2585 43.5461 94.7729 43.5461Z" fill="#FF6505"/>
<path d="M104.144 44.537H102.849V40.2492H100.178V44.537H98.8867V39.195H104.144V44.537Z" fill="#FF6505"/>
<path d="M106.874 40.2492H104.919V39.195H110.125V40.2492H108.17V44.537H106.874V40.2492Z" fill="#FF6505"/>
<path d="M115.634 39.8581C116.169 40.3548 116.437 41.0241 116.437 41.866C116.437 42.7104 116.169 43.3785 115.634 43.8702C115.101 44.3644 114.377 44.6115 113.463 44.6115C112.549 44.6115 111.826 44.3644 111.296 43.8702C110.76 43.3785 110.492 42.7104 110.492 41.866C110.492 41.0241 110.76 40.3548 111.296 39.8581C111.829 39.3663 112.551 39.1205 113.463 39.1205C114.374 39.1205 115.098 39.3663 115.634 39.8581ZM113.467 43.5461C113.981 43.5461 114.38 43.3884 114.662 43.073C114.945 42.7576 115.086 42.3553 115.086 41.866C115.086 41.3792 114.945 40.9781 114.662 40.6627C114.38 40.3473 113.981 40.1896 113.467 40.1896C112.952 40.1896 112.554 40.3473 112.271 40.6627C111.986 40.9806 111.844 41.3817 111.844 41.866C111.844 42.3528 111.986 42.7551 112.271 43.073C112.554 43.3884 112.952 43.5461 113.467 43.5461Z" fill="#FF6505"/>
<path d="M122.558 43.0432C122.558 43.5871 122.377 43.972 122.014 44.198C121.652 44.424 121.057 44.537 120.231 44.537H117.581V39.195H120.371C121.637 39.195 122.27 39.6656 122.27 40.6069C122.27 40.7633 122.241 40.9111 122.182 41.0502C122.126 41.1892 122.054 41.2985 121.966 41.378C121.796 41.532 121.641 41.6338 121.502 41.6835L121.411 41.7058V41.7617C121.445 41.7667 121.488 41.7741 121.538 41.7841C121.594 41.7965 121.686 41.8312 121.814 41.8884C121.953 41.9554 122.069 42.0287 122.162 42.1082C122.271 42.2 122.365 42.3304 122.442 42.4993C122.519 42.6657 122.558 42.847 122.558 43.0432ZM121.207 42.9203C121.207 42.4732 120.901 42.2497 120.291 42.2497H118.872V43.5834H120.291C120.901 43.5834 121.207 43.3623 121.207 42.9203ZM120.919 40.767C120.919 40.3548 120.655 40.1486 120.127 40.1486H118.872V41.3929H120.127C120.655 41.3929 120.919 41.1843 120.919 40.767Z" fill="#FF6505"/>
<path d="M128.643 39.8581C129.178 40.3548 129.446 41.0241 129.446 41.866C129.446 42.7104 129.178 43.3785 128.643 43.8702C128.11 44.3644 127.386 44.6115 126.472 44.6115C125.558 44.6115 124.835 44.3644 124.305 43.8702C123.769 43.3785 123.501 42.7104 123.501 41.866C123.501 41.0241 123.769 40.3548 124.305 39.8581C124.838 39.3663 125.56 39.1205 126.472 39.1205C127.383 39.1205 128.107 39.3663 128.643 39.8581ZM126.476 43.5461C126.99 43.5461 127.389 43.3884 127.671 43.073C127.954 42.7576 128.095 42.3553 128.095 41.866C128.095 41.3792 127.954 40.9781 127.671 40.6627C127.389 40.3473 126.99 40.1896 126.476 40.1896C125.961 40.1896 125.563 40.3473 125.28 40.6627C124.995 40.9806 124.853 41.3817 124.853 41.866C124.853 42.3528 124.995 42.7551 125.28 43.073C125.563 43.3884 125.961 43.5461 126.476 43.5461Z" fill="#FF6505"/>
<path d="M134.471 38.2674C134.218 38.4536 133.836 38.5468 133.324 38.5468C132.812 38.5468 132.43 38.4536 132.177 38.2674C131.926 38.0861 131.801 37.7955 131.801 37.3957V37.3435H132.724V37.3957C132.724 37.6713 132.924 37.8092 133.324 37.8092C133.721 37.8092 133.92 37.6713 133.92 37.3957V37.3435H134.847V37.3957C134.847 37.7955 134.722 38.0861 134.471 38.2674ZM134.863 40.3498L134.599 41.0278L132.365 44.537H130.59V39.195H131.881V42.7824L131.701 43.4604H131.825L132.089 42.7824L134.324 39.195H136.099V44.537H134.807V41.0278L134.987 40.3498H134.863Z" fill="#FF6505"/>
<path d="M140.432 40.2492H138.477V39.195H143.683V40.2492H141.728V44.537H140.432V40.2492Z" fill="#FF6505"/>
<path d="M149.192 39.8581C149.727 40.3548 149.995 41.0241 149.995 41.866C149.995 42.7104 149.727 43.3785 149.192 43.8702C148.659 44.3644 147.935 44.6115 147.021 44.6115C146.107 44.6115 145.384 44.3644 144.854 43.8702C144.318 43.3785 144.05 42.7104 144.05 41.866C144.05 41.0241 144.318 40.3548 144.854 39.8581C145.387 39.3663 146.109 39.1205 147.021 39.1205C147.932 39.1205 148.656 39.3663 149.192 39.8581ZM147.025 43.5461C147.539 43.5461 147.938 43.3884 148.22 43.073C148.503 42.7576 148.644 42.3553 148.644 41.866C148.644 41.3792 148.503 40.9781 148.22 40.6627C147.938 40.3473 147.539 40.1896 147.025 40.1896C146.51 40.1896 146.112 40.3473 145.829 40.6627C145.544 40.9806 145.402 41.3817 145.402 41.866C145.402 42.3528 145.544 42.7551 145.829 43.073C146.112 43.3884 146.51 43.5461 147.025 43.5461Z" fill="#FF6505"/>
<path d="M153.545 43.155H152.43V44.537H151.139V39.195H153.545C155.192 39.195 156.016 39.8568 156.016 41.1806C156.016 42.4968 155.192 43.155 153.545 43.155ZM154.669 41.1806C154.669 40.5348 154.294 40.212 153.545 40.212H152.43V42.1417H153.545C154.294 42.1417 154.669 41.8213 154.669 41.1806Z" fill="#FF6505"/>
<path d="M157.127 39.195H161.549V40.2492H158.419V44.537H157.127V39.195Z" fill="#FF6505"/>
<path d="M166.934 39.8581C167.47 40.3548 167.738 41.0241 167.738 41.866C167.738 42.7104 167.47 43.3785 166.934 43.8702C166.401 44.3644 165.677 44.6115 164.763 44.6115C163.849 44.6115 163.127 44.3644 162.596 43.8702C162.061 43.3785 161.793 42.7104 161.793 41.866C161.793 41.0241 162.061 40.3548 162.596 39.8581C163.129 39.3663 163.852 39.1205 164.763 39.1205C165.675 39.1205 166.398 39.3663 166.934 39.8581ZM164.767 43.5461C165.282 43.5461 165.68 43.3884 165.963 43.073C166.245 42.7576 166.386 42.3553 166.386 41.866C166.386 41.3792 166.245 40.9781 165.963 40.6627C165.68 40.3473 165.282 40.1896 164.767 40.1896C164.253 40.1896 163.854 40.3473 163.572 40.6627C163.287 40.9806 163.144 41.3817 163.144 41.866C163.144 42.3528 163.287 42.7551 163.572 43.073C163.854 43.3884 164.253 43.5461 164.767 43.5461Z" fill="#FF6505"/>
<path d="M173.858 43.0432C173.858 43.5871 173.677 43.972 173.315 44.198C172.952 44.424 172.358 44.537 171.532 44.537H168.881V39.195H171.671C172.937 39.195 173.57 39.6656 173.57 40.6069C173.57 40.7633 173.541 40.9111 173.482 41.0502C173.426 41.1892 173.355 41.2985 173.267 41.378C173.096 41.532 172.941 41.6338 172.803 41.6835L172.711 41.7058V41.7617C172.746 41.7667 172.788 41.7741 172.839 41.7841C172.895 41.7965 172.987 41.8312 173.115 41.8884C173.253 41.9554 173.369 42.0287 173.462 42.1082C173.572 42.2 173.665 42.3304 173.742 42.4993C173.82 42.6657 173.858 42.847 173.858 43.0432ZM172.507 42.9203C172.507 42.4732 172.202 42.2497 171.591 42.2497H170.172V43.5834H171.591C172.202 43.5834 172.507 43.3623 172.507 42.9203ZM172.219 40.767C172.219 40.3548 171.955 40.1486 171.428 40.1486H170.172V41.3929H171.428C171.955 41.3929 172.219 41.1843 172.219 40.767Z" fill="#FF6505"/>
<path d="M174.258 44.5668L174.182 44.5445V43.4157C174.27 43.4306 174.363 43.4381 174.462 43.4381C174.686 43.4381 174.847 43.3673 174.946 43.2257C175.042 43.0916 175.112 42.8681 175.158 42.5552L175.609 39.195H179.923V44.537H178.628V40.2492H176.805L176.453 42.7824C176.362 43.4257 176.198 43.8913 175.961 44.1794C175.724 44.4675 175.336 44.6115 174.798 44.6115C174.571 44.6115 174.391 44.5966 174.258 44.5668Z" fill="#FF6505"/>
<path d="M185.508 40.3498L185.244 41.0278L183.009 44.537H181.234V39.195H182.526V42.7824L182.346 43.4604H182.47L182.733 42.7824L184.968 39.195H186.743V44.537H185.452V41.0278L185.632 40.3498H185.508Z" fill="#FF6505"/>
<path d="M41.726 15.9547C41.063 17.2824 37.8658 22.7344 27.676 28.6175C17.5327 34.4738 10.8038 34.737 9.20599 34.7039C9.26832 34.8153 9.32442 34.9292 9.38821 35.0397C9.65469 35.5013 9.94095 35.9417 10.2401 36.3708C13.0463 36.2441 19.4551 35.3022 28.5146 30.0717C37.4259 24.9267 41.2255 20.0582 42.664 17.7119C42.435 17.2229 42.1889 16.738 41.9144 16.2626C41.855 16.1564 41.7892 16.0558 41.726 15.9547Z" fill="#FF6505"/>
<path d="M12.5576 38.9819L12.5383 39.0861L12.5406 39.0868C13.1614 39.6936 13.8187 40.2513 14.5068 40.7582C17.5505 40.6989 23.5152 39.8505 31.539 35.218C39.0394 30.8876 42.6716 26.5247 44.3408 23.8747C44.2563 22.9747 44.1065 22.0756 43.8901 21.1839C43.25 22.6282 40.2804 28.2329 30.7004 33.7639C19.6282 40.1564 12.6265 38.9955 12.5576 38.9819Z" fill="#FF6505"/>
<path d="M39.0402 12.4813C38.6262 12.0613 38.1939 11.6634 37.7487 11.2867C37.1384 12.7409 34.5193 17.4804 24.8368 23.0705C15.1565 28.6594 8.96901 28.9406 7.1516 28.8763C7.24989 29.4427 7.37702 30.007 7.53026 30.5679C10.0257 30.5828 16.2771 29.9508 25.6754 24.5247C34.7574 19.2811 37.9667 14.6304 39.0402 12.4813Z" fill="#FF6505"/>
<path d="M17.9247 42.7529C19.5258 43.4731 21.2198 43.9682 22.9538 44.2221C25.8197 43.7372 29.6922 42.5636 34.3572 39.8702C38.5185 37.4677 41.1984 35.0376 42.9347 32.9739C43.689 31.1884 44.1627 29.2945 44.3415 27.3616C44.1229 28.1177 42.3354 33.3257 33.5179 38.4165C24.6666 43.5259 18.7838 42.8829 17.9247 42.7529Z" fill="#FF6505"/>
<path d="M45.9976 27.6692C46.0028 27.65 46.0092 27.6215 46.011 27.6147L46.0016 27.6116C45.9991 27.6321 46.0002 27.6505 45.9976 27.6692Z" fill="#FF6505"/>
<path d="M17.6842 10.8065C19.8205 9.46749 20.9866 8.07126 21.5064 7.33502C20.3423 7.59817 19.1892 7.97798 18.0662 8.47518C17.4567 8.74565 16.8548 9.04762 16.2646 9.38838C15.6911 9.71949 15.1444 10.0768 14.6183 10.4581C13.5964 11.1993 12.6674 12.0293 11.8368 12.9323C12.6763 12.8169 14.9441 12.3972 17.2562 11.0623C17.3991 10.9808 17.5429 10.8958 17.6842 10.8065Z" fill="#FF6505"/>
<path d="M35.6207 41.7621C34.883 42.22 34.1397 42.5677 33.4441 42.8366C32.4222 43.5778 31.494 44.4092 30.662 45.3131C31.5028 45.195 33.7708 44.7772 36.0836 43.4419C36.2253 43.36 36.369 43.2732 36.5103 43.1839C38.6482 41.8459 39.8131 40.4494 40.3341 39.7134C39.168 39.9748 38.0158 40.3561 36.8917 40.8548C36.5167 41.1537 36.1056 41.4589 35.6207 41.7621Z" fill="#FF6505"/>
<path d="M28.2393 7.06509C27.6463 6.98299 27.0496 6.92818 26.4524 6.90086C25.6576 8.43837 23.7237 11.0813 19.1336 13.7314C14.5566 16.374 10.9536 17.014 8.93083 17.1313C8.64838 17.6878 8.39232 18.2582 8.16734 18.8387C10.1997 18.8506 14.4208 18.3916 19.9726 15.1863C25.4682 12.0114 27.5014 8.78005 28.2393 7.06509Z" fill="#FF6505"/>
<path d="M34.1463 8.91448C33.6457 8.66176 33.1338 8.43303 32.6148 8.22578C31.8819 9.94759 29.4281 14.1845 21.9008 18.5304C14.8808 22.5834 9.55862 22.804 7.13122 22.6131C7.03896 23.1684 6.97296 23.7289 6.9308 24.292C9.60867 24.5273 15.26 24.3027 22.7401 19.9841C30.5443 15.4783 33.2592 10.9734 34.1463 8.91448Z" fill="#FF6505"/>
</svg>
